{"asset":{"version":"2.0","generator":"Blockbench 4.12.5 glTF exporter"},"scenes":[{"nodes":[12],"name":"blockbench_export"}],"scene":0,"nodes":[{"translation":[0,0.25,0],"name":"cylinder","mesh":0},{"translation":[0,0.6875,0],"name":"sphere","mesh":1},{"translation":[0.0625,0,-0.1875],"name":"bone","children":[0,1]},{"translation":[0,0.0625,0],"name":"cylinder","mesh":2},{"translation":[0,0.3125,0],"name":"sphere","mesh":3},{"translation":[-0.25,0,0.1875],"name":"bone2","children":[3,4]},{"translation":[0,0.125,0],"name":"cylinder","mesh":4},{"translation":[0,0.4375,0],"name":"sphere","mesh":5},{"translation":[-0.3125,0,-0.375],"name":"bone3","children":[6,7]},{"name":"cylinder","mesh":6},{"translation":[0,0.125,0],"name":"sphere","mesh":7},{"translation":[0.25,0,0.25],"name":"bone4","children":[9,10]},{"children":[2,5,8,11]}],"bufferViews":[{"buffer":0,"byteOffset":0,"byteLength":720,"target":34962,"byteStride":12},{"buffer":0,"byteOffset":720,"byteLength":720,"target":34962,"byteStride":12},{"buffer":0,"byteOffset":1440,"byteLength":480,"target":34962,"byteStride":8},{"buffer":0,"byteOffset":1920,"byteLength":144,"target":34963},{"buffer":0,"byteOffset":2064,"byteLength":1824,"target":34962,"byteStride":12},{"buffer":0,"byteOffset":3888,"byteLength":1824,"target":34962,"byteStride":12},{"buffer":0,"byteOffset":5712,"byteLength":1216,"target":34962,"byteStride":8},{"buffer":0,"byteOffset":6928,"byteLength":420,"target":34963},{"buffer":0,"byteOffset":7348,"byteLength":720,"target":34962,"byteStride":12},{"buffer":0,"byteOffset":8068,"byteLength":720,"target":34962,"byteStride":12},{"buffer":0,"byteOffset":8788,"byteLength":480,"target":34962,"byteStride":8},{"buffer":0,"byteOffset":9268,"byteLength":144,"target":34963},{"buffer":0,"byteOffset":9412,"byteLength":1824,"target":34962,"byteStride":12},{"buffer":0,"byteOffset":11236,"byteLength":1824,"target":34962,"byteStride":12},{"buffer":0,"byteOffset":13060,"byteLength":1216,"target":34962,"byteStride":8},{"buffer":0,"byteOffset":14276,"byteLength":420,"target":34963},{"buffer":0,"byteOffset":14696,"byteLength":720,"target":34962,"byteStride":12},{"buffer":0,"byteOffset":15416,"byteLength":720,"target":34962,"byteStride":12},{"buffer":0,"byteOffset":16136,"byteLength":480,"target":34962,"byteStride":8},{"buffer":0,"byteOffset":16616,"byteLength":144,"target":34963},{"buffer":0,"byteOffset":16760,"byteLength":1824,"target":34962,"byteStride":12},{"buffer":0,"byteOffset":18584,"byteLength":1824,"target":34962,"byteStride":12},{"buffer":0,"byteOffset":20408,"byteLength":1216,"target":34962,"byteStride":8},{"buffer":0,"byteOffset":21624,"byteLength":420,"target":34963},{"buffer":0,"byteOffset":22044,"byteLength":720,"target":34962,"byteStride":12},{"buffer":0,"byteOffset":22764,"byteLength":720,"target":34962,"byteStride":12},{"buffer":0,"byteOffset":23484,"byteLength":480,"target":34962,"byteStride":8},{"buffer":0,"byteOffset":23964,"byteLength":144,"target":34963},{"buffer":0,"byteOffset":24108,"byteLength":1824,"target":34962,"byteStride":12},{"buffer":0,"byteOffset":25932,"byteLength":1824,"target":34962,"byteStride":12},{"buffer":0,"byteOffset":27756,"byteLength":1216,"target":34962,"byteStride":8},{"buffer":0,"byteOffset":28972,"byteLength":420,"target":34963}],"buffers":[{"byteLength":29392,"uri":"data:application/octet-stream;base64,"}],"accessors":[{"bufferView":0,"componentType":5126,"count":60,"max":[0.1082531213760376,0.4375,0.09375],"min":[-0.1082531213760376,-0.25,-0.09375],"type":"VEC3"},{"bufferView":1,"componentType":5126,"count":60,"max":[0.866026759147644,1,1],"min":[-0.866026759147644,-1,-1],"type":"VEC3"},{"bufferView":2,"componentType":5126,"count":60,"max":[0.1082562506198883,0.1875],"min":[0,0],"type":"VEC2"},{"bufferView":3,"componentType":5123,"count":72,"max":[59],"min":[0],"type":"SCALAR"},{"bufferView":4,"componentType":5126,"count":152,"max":[0.28125,0.28125,0.28125],"min":[-0.28125,0,-0.28125],"type":"VEC3"},{"bufferView":5,"componentType":5126,"count":152,"max":[0.9659253358840942,0.9659253358840942,0.9659253358840942],"min":[-0.9659253358840942,-1,-0.9659253358840942],"type":"VEC3"},{"bufferView":6,"componentType":5126,"count":152,"max":[0.15072500705718994,0.1455875039100647],"min":[0,0],"type":"VEC2"},{"bufferView":7,"componentType":5123,"count":210,"max":[151],"min":[0],"type":"SCALAR"},{"bufferView":8,"componentType":5126,"count":60,"max":[0.1082531213760376,0.25,0.09375],"min":[-0.1082531213760376,-0.0625,-0.09375],"type":"VEC3"},{"bufferView":9,"componentType":5126,"count":60,"max":[0.866026759147644,1,1],"min":[-0.866026759147644,-1,-1],"type":"VEC3"},{"bufferView":10,"componentType":5126,"count":60,"max":[0.1082562506198883,0.1875],"min":[0,0],"type":"VEC2"},{"bufferView":11,"componentType":5123,"count":72,"max":[59],"min":[0],"type":"SCALAR"},{"bufferView":12,"componentType":5126,"count":152,"max":[0.28125,0.28125,0.28125],"min":[-0.28125,0,-0.28125],"type":"VEC3"},{"bufferView":13,"componentType":5126,"count":152,"max":[0.9659253358840942,0.9659253358840942,0.9659253358840942],"min":[-0.9659253358840942,-1,-0.9659253358840942],"type":"VEC3"},{"bufferView":14,"componentType":5126,"count":152,"max":[0.15072500705718994,0.1455875039100647],"min":[0,0],"type":"VEC2"},{"bufferView":15,"componentType":5123,"count":210,"max":[151],"min":[0],"type":"SCALAR"},{"bufferView":16,"componentType":5126,"count":60,"max":[0.1082531213760376,0.3125,0.09375],"min":[-0.1082531213760376,-0.125,-0.09375],"type":"VEC3"},{"bufferView":17,"componentType":5126,"count":60,"max":[0.866026759147644,1,1],"min":[-0.866026759147644,-1,-1],"type":"VEC3"},{"bufferView":18,"componentType":5126,"count":60,"max":[0.1082562506198883,0.1875],"min":[0,0],"type":"VEC2"},{"bufferView":19,"componentType":5123,"count":72,"max":[59],"min":[0],"type":"SCALAR"},{"bufferView":20,"componentType":5126,"count":152,"max":[0.28125,0.28125,0.28125],"min":[-0.28125,0,-0.28125],"type":"VEC3"},{"bufferView":21,"componentType":5126,"count":152,"max":[0.9659253358840942,0.9659253358840942,0.9659253358840942],"min":[-0.9659253358840942,-1,-0.9659253358840942],"type":"VEC3"},{"bufferView":22,"componentType":5126,"count":152,"max":[0.15072500705718994,0.1455875039100647],"min":[0,0],"type":"VEC2"},{"bufferView":23,"componentType":5123,"count":210,"max":[151],"min":[0],"type":"SCALAR"},{"bufferView":24,"componentType":5126,"count":60,"max":[0.1082531213760376,0.1875,0.09375],"min":[-0.1082531213760376,0,-0.09375],"type":"VEC3"},{"bufferView":25,"componentType":5126,"count":60,"max":[0.866026759147644,1,1],"min":[-0.866026759147644,-1,-1],"type":"VEC3"},{"bufferView":26,"componentType":5126,"count":60,"max":[0.1082562506198883,0.1875],"min":[0,0],"type":"VEC2"},{"bufferView":27,"componentType":5123,"count":72,"max":[59],"min":[0],"type":"SCALAR"},{"bufferView":28,"componentType":5126,"count":152,"max":[0.28125,0.28125,0.28125],"min":[-0.28125,0,-0.28125],"type":"VEC3"},{"bufferView":29,"componentType":5126,"count":152,"max":[0.9659253358840942,0.9659253358840942,0.9659253358840942],"min":[-0.9659253358840942,-1,-0.9659253358840942],"type":"VEC3"},{"bufferView":30,"componentType":5126,"count":152,"max":[0.15072500705718994,0.1455875039100647],"min":[0,0],"type":"VEC2"},{"bufferView":31,"componentType":5123,"count":210,"max":[151],"min":[0],"type":"SCALAR"}],"materials":[{"pbrMetallicRoughness":{"metallicFactor":0,"roughnessFactor":1},"alphaMode":"MASK","alphaCutoff":0.05,"doubleSided":true},{"pbrMetallicRoughness":{"metallicFactor":0,"roughnessFactor":1},"alphaMode":"MASK","alphaCutoff":0.05,"doubleSided":true}],"meshes":[{"primitives":[{"mode":4,"attributes":{"POSITION":0,"NORMAL":1,"TEXCOORD_0":2},"indices":3,"material":0}]},{"primitives":[{"mode":4,"attributes":{"POSITION":4,"NORMAL":5,"TEXCOORD_0":6},"indices":7,"material":1}]},{"primitives":[{"mode":4,"attributes":{"POSITION":8,"NORMAL":9,"TEXCOORD_0":10},"indices":11,"material":0}]},{"primitives":[{"mode":4,"attributes":{"POSITION":12,"NORMAL":13,"TEXCOORD_0":14},"indices":15,"material":1}]},{"primitives":[{"mode":4,"attributes":{"POSITION":16,"NORMAL":17,"TEXCOORD_0":18},"indices":19,"material":0}]},{"primitives":[{"mode":4,"attributes":{"POSITION":20,"NORMAL":21,"TEXCOORD_0":22},"indices":23,"material":1}]},{"primitives":[{"mode":4,"attributes":{"POSITION":24,"NORMAL":25,"TEXCOORD_0":26},"indices":27,"material":0}]},{"primitives":[{"mode":4,"attributes":{"POSITION":28,"NORMAL":29,"TEXCOORD_0":30},"indices":31,"material":1}]}]}