{"asset":{"version":"2.0","generator":"Blockbench 4.12.5 glTF exporter"},"scenes":[{"nodes":[9],"name":"blockbench_export"}],"scene":0,"nodes":[{"translation":[0,0.875,0],"name":"sphere","mesh":0},{"translation":[0,-0.0625,0],"name":"cylinder","mesh":1},{"rotation":[0.10821984247127282,-0.011852016209270164,0.10821984247127282,0.9881479955465987],"name":"plant","children":[0,1]},{"translation":[0,0.9375,0],"name":"sphere","mesh":2},{"name":"cylinder","mesh":3},{"rotation":[-0.13024675397029553,0.00853679583970657,0.06484361241649522,0.9893220972594173],"name":"plant2","children":[3,4]},{"translation":[0,0.8125,0],"name":"sphere","mesh":4},{"translation":[0,-0.125,0],"name":"cylinder","mesh":5},{"rotation":[0,0,-0.13052619222005157,0.9914448613738104],"name":"plant3","children":[6,7]},{"children":[2,5,8]}],"bufferViews":[{"buffer":0,"byteOffset":0,"byteLength":720,"target":34962,"byteStride":12},{"buffer":0,"byteOffset":720,"byteLength":720,"target":34962,"byteStride":12},{"buffer":0,"byteOffset":1440,"byteLength":480,"target":34962,"byteStride":8},{"buffer":0,"byteOffset":1920,"byteLength":144,"target":34963},{"buffer":0,"byteOffset":2064,"byteLength":720,"target":34962,"byteStride":12},{"buffer":0,"byteOffset":2784,"byteLength":720,"target":34962,"byteStride":12},{"buffer":0,"byteOffset":3504,"byteLength":480,"target":34962,"byteStride":8},{"buffer":0,"byteOffset":3984,"byteLength":144,"target":34963},{"buffer":0,"byteOffset":4128,"byteLength":720,"target":34962,"byteStride":12},{"buffer":0,"byteOffset":4848,"byteLength":720,"target":34962,"byteStride":12},{"buffer":0,"byteOffset":5568,"byteLength":480,"target":34962,"byteStride":8},{"buffer":0,"byteOffset":6048,"byteLength":144,"target":34963},{"buffer":0,"byteOffset":6192,"byteLength":720,"target":34962,"byteStride":12},{"buffer":0,"byteOffset":6912,"byteLength":720,"target":34962,"byteStride":12},{"buffer":0,"byteOffset":7632,"byteLength":480,"target":34962,"byteStride":8},{"buffer":0,"byteOffset":8112,"byteLength":144,"target":34963},{"buffer":0,"byteOffset":8256,"byteLength":720,"target":34962,"byteStride":12},{"buffer":0,"byteOffset":8976,"byteLength":720,"target":34962,"byteStride":12},{"buffer":0,"byteOffset":9696,"byteLength":480,"target":34962,"byteStride":8},{"buffer":0,"byteOffset":10176,"byteLength":144,"target":34963},{"buffer":0,"byteOffset":10320,"byteLength":720,"target":34962,"byteStride":12},{"buffer":0,"byteOffset":11040,"byteLength":720,"target":34962,"byteStride":12},{"buffer":0,"byteOffset":11760,"byteLength":480,"target":34962,"byteStride":8},{"buffer":0,"byteOffset":12240,"byteLength":144,"target":34963}],"buffers":[{"byteLength":12384,"uri":"data:application/octet-stream;base64,"}],"accessors":[{"bufferView":0,"componentType":5126,"count":60,"max":[0.1875,0.1875,0.16237999498844147],"min":[-0.1875,-0.1875,-0.16237999498844147],"type":"VEC3"},{"bufferView":1,"componentType":5126,"count":60,"max":[0.8660257458686829,0.8660257458686829,1],"min":[-0.8660257458686829,-0.8660257458686829,-1],"type":"VEC3"},{"bufferView":2,"componentType":5126,"count":60,"max":[0.515625,0.484375],"min":[0.0031250000465661287,0],"type":"VEC2"},{"bufferView":3,"componentType":5123,"count":72,"max":[59],"min":[0],"type":"SCALAR"},{"bufferView":4,"componentType":5126,"count":60,"max":[0.0721687525510788,0.8125,0.0625],"min":[-0.0721687525510788,0,-0.0625],"type":"VEC3"},{"bufferView":5,"componentType":5126,"count":60,"max":[0.8660255074501038,1,1],"min":[-0.8660255074501038,-1,-1],"type":"VEC3"},{"bufferView":6,"componentType":5126,"count":60,"max":[0.2914796769618988,0.53125],"min":[0,0],"type":"VEC2"},{"bufferView":7,"componentType":5123,"count":72,"max":[59],"min":[0],"type":"SCALAR"},{"bufferView":8,"componentType":5126,"count":60,"max":[0.1875,0.1875,0.16237999498844147],"min":[-0.1875,-0.1875,-0.16237999498844147],"type":"VEC3"},{"bufferView":9,"componentType":5126,"count":60,"max":[0.8660257458686829,0.8660257458686829,1],"min":[-0.8660257458686829,-0.8660257458686829,-1],"type":"VEC3"},{"bufferView":10,"componentType":5126,"count":60,"max":[0.515625,0.546875],"min":[0,0],"type":"VEC2"},{"bufferView":11,"componentType":5123,"count":72,"max":[59],"min":[0],"type":"SCALAR"},{"bufferView":12,"componentType":5126,"count":60,"max":[0.0721687525510788,0.8125,0.0625],"min":[-0.0721687525510788,0,-0.0625],"type":"VEC3"},{"bufferView":13,"componentType":5126,"count":60,"max":[0.8660255074501038,1,1],"min":[-0.8660255074501038,-1,-1],"type":"VEC3"},{"bufferView":14,"componentType":5126,"count":60,"max":[0.5727297067642212,0.546875],"min":[0.1875,0.171875],"type":"VEC2"},{"bufferView":15,"componentType":5123,"count":72,"max":[59],"min":[0],"type":"SCALAR"},{"bufferView":16,"componentType":5126,"count":60,"max":[0.1875,0.1875,0.16237999498844147],"min":[-0.1875,-0.1875,-0.16237999498844147],"type":"VEC3"},{"bufferView":17,"componentType":5126,"count":60,"max":[0.8660257458686829,0.8660257458686829,1],"min":[-0.8660257458686829,-0.8660257458686829,-1],"type":"VEC3"},{"bufferView":18,"componentType":5126,"count":60,"max":[0.578125,0.546875],"min":[0.0031250000465661287,0],"type":"VEC2"},{"bufferView":19,"componentType":5123,"count":72,"max":[59],"min":[0],"type":"SCALAR"},{"bufferView":20,"componentType":5126,"count":60,"max":[0.0721687525510788,0.8125,0.0625],"min":[-0.0721687525510788,0,-0.0625],"type":"VEC3"},{"bufferView":21,"componentType":5126,"count":60,"max":[0.8660255074501038,1,1],"min":[-0.8660255074501038,-1,-1],"type":"VEC3"},{"bufferView":22,"componentType":5126,"count":60,"max":[0.5727297067642212,0.421875],"min":[0.359375,0],"type":"VEC2"},{"bufferView":23,"componentType":5123,"count":72,"max":[59],"min":[0],"type":"SCALAR"}],"materials":[{"pbrMetallicRoughness":{"metallicFactor":0,"roughnessFactor":1,"baseColorTexture":{"index":0}},"alphaMode":"MASK","alphaCutoff":0.05}],"textures":[{"sampler":0,"source":0,"name":"texture"}],"samplers":[{"magFilter":9728,"minFilter":9728,"wrapS":33071,"wrapT":33071}],"images":[{"mimeType":"image/png","uri":"data:image/png;base64,"}],"meshes":[{"primitives":[{"mode":4,"attributes":{"POSITION":0,"NORMAL":1,"TEXCOORD_0":2},"indices":3,"material":0}]},{"primitives":[{"mode":4,"attributes":{"POSITION":4,"NORMAL":5,"TEXCOORD_0":6},"indices":7,"material":0}]},{"primitives":[{"mode":4,"attributes":{"POSITION":8,"NORMAL":9,"TEXCOORD_0":10},"indices":11,"material":0}]},{"primitives":[{"mode":4,"attributes":{"POSITION":12,"NORMAL":13,"TEXCOORD_0":14},"indices":15,"material":0}]},{"primitives":[{"mode":4,"attributes":{"POSITION":16,"NORMAL":17,"TEXCOORD_0":18},"indices":19,"material":0}]},{"primitives":[{"mode":4,"attributes":{"POSITION":20,"NORMAL":21,"TEXCOORD_0":22},"indices":23,"material":0}]}]}