{"asset":{"version":"2.0","generator":"Blockbench 4.12.5 glTF exporter"},"scenes":[{"nodes":[9],"name":"blockbench_export"}],"scene":0,"nodes":[{"name":"cylinder","mesh":0},{"rotation":[-9.314870898646907e-18,-0.1521233861899167,-0.9883615104677607,6.051968800973931e-17],"translation":[0.015625,0.1404025,0.191743125],"name":"cube","mesh":1},{"translation":[-0.015625,0,0.03125],"name":"bone","children":[1]},{"rotation":[-9.314870898646907e-18,-0.1521233861899167,-0.9883615104677607,6.051968800973931e-17],"translation":[0.015625,0.1404025,0.191743125],"name":"cube","mesh":2},{"rotation":[0,0.7071067811865475,0,0.7071067811865476],"translation":[0.03125,0,0.015625],"name":"bone2","children":[3]},{"rotation":[-9.314870898646907e-18,-0.1521233861899167,-0.9883615104677607,6.051968800973931e-17],"translation":[0.015625,0.1404025,0.191743125],"name":"cube","mesh":3},{"rotation":[0,-1,0,6.123233995736766e-17],"translation":[0.015625,0,-0.03125],"name":"bone3","children":[5]},{"rotation":[-9.314870898646907e-18,-0.1521233861899167,-0.9883615104677607,6.051968800973931e-17],"translation":[0.015625,0.1404025,0.191743125],"name":"cube","mesh":4},{"rotation":[0,-0.7071067811865475,0,0.7071067811865476],"translation":[-0.03125,0,-0.01875],"name":"bone4","children":[7]},{"children":[0,2,4,6,8]}],"bufferViews":[{"buffer":0,"byteOffset":0,"byteLength":960,"target":34962,"byteStride":12},{"buffer":0,"byteOffset":960,"byteLength":960,"target":34962,"byteStride":12},{"buffer":0,"byteOffset":1920,"byteLength":640,"target":34962,"byteStride":8},{"buffer":0,"byteOffset":2560,"byteLength":192,"target":34963},{"buffer":0,"byteOffset":2752,"byteLength":1440,"target":34962,"byteStride":12},{"buffer":0,"byteOffset":4192,"byteLength":1440,"target":34962,"byteStride":12},{"buffer":0,"byteOffset":5632,"byteLength":960,"target":34962,"byteStride":8},{"buffer":0,"byteOffset":6592,"byteLength":360,"target":34963},{"buffer":0,"byteOffset":6952,"byteLength":1440,"target":34962,"byteStride":12},{"buffer":0,"byteOffset":8392,"byteLength":1440,"target":34962,"byteStride":12},{"buffer":0,"byteOffset":9832,"byteLength":960,"target":34962,"byteStride":8},{"buffer":0,"byteOffset":10792,"byteLength":360,"target":34963},{"buffer":0,"byteOffset":11152,"byteLength":1440,"target":34962,"byteStride":12},{"buffer":0,"byteOffset":12592,"byteLength":1440,"target":34962,"byteStride":12},{"buffer":0,"byteOffset":14032,"byteLength":960,"target":34962,"byteStride":8},{"buffer":0,"byteOffset":14992,"byteLength":360,"target":34963},{"buffer":0,"byteOffset":15352,"byteLength":1440,"target":34962,"byteStride":12},{"buffer":0,"byteOffset":16792,"byteLength":1440,"target":34962,"byteStride":12},{"buffer":0,"byteOffset":18232,"byteLength":960,"target":34962,"byteStride":8},{"buffer":0,"byteOffset":19192,"byteLength":360,"target":34963}],"buffers":[{"byteLength":19552,"uri":"data:application/octet-stream;base64,"}],"accessors":[{"bufferView":0,"componentType":5126,"count":80,"max":[0.125,0.15625,0.125],"min":[-0.125,0,-0.125],"type":"VEC3"},{"bufferView":1,"componentType":5126,"count":80,"max":[1,1,1],"min":[-1,-1,-1],"type":"VEC3"},{"bufferView":2,"componentType":5126,"count":80,"max":[0.13529811799526215,0.15625],"min":[0,0],"type":"VEC2"},{"bufferView":3,"componentType":5123,"count":96,"max":[79],"min":[0],"type":"SCALAR"},{"bufferView":4,"componentType":5126,"count":120,"max":[0.1875,0.05078125,0.3125],"min":[-0.1875,-0.04296875,-0.25],"type":"VEC3"},{"bufferView":5,"componentType":5126,"count":120,"max":[1,1,1],"min":[-1,-1,-1],"type":"VEC3"},{"bufferView":6,"componentType":5126,"count":120,"max":[0.4375,0.4375],"min":[0,0],"type":"VEC2"},{"bufferView":7,"componentType":5123,"count":180,"max":[119],"min":[0],"type":"SCALAR"},{"bufferView":8,"componentType":5126,"count":120,"max":[0.1875,0.05078125,0.3125],"min":[-0.1875,-0.04296875,-0.25],"type":"VEC3"},{"bufferView":9,"componentType":5126,"count":120,"max":[1,1,1],"min":[-1,-1,-1],"type":"VEC3"},{"bufferView":10,"componentType":5126,"count":120,"max":[0.4375,0.4375],"min":[0,0],"type":"VEC2"},{"bufferView":11,"componentType":5123,"count":180,"max":[119],"min":[0],"type":"SCALAR"},{"bufferView":12,"componentType":5126,"count":120,"max":[0.1875,0.05078125,0.3125],"min":[-0.1875,-0.04296875,-0.25],"type":"VEC3"},{"bufferView":13,"componentType":5126,"count":120,"max":[1,1,1],"min":[-1,-1,-1],"type":"VEC3"},{"bufferView":14,"componentType":5126,"count":120,"max":[0.4375,0.4375],"min":[0,0],"type":"VEC2"},{"bufferView":15,"componentType":5123,"count":180,"max":[119],"min":[0],"type":"SCALAR"},{"bufferView":16,"componentType":5126,"count":120,"max":[0.1875,0.05078125,0.3125],"min":[-0.1875,-0.04296875,-0.25],"type":"VEC3"},{"bufferView":17,"componentType":5126,"count":120,"max":[1,1,1],"min":[-1,-1,-1],"type":"VEC3"},{"bufferView":18,"componentType":5126,"count":120,"max":[0.4375,0.4375],"min":[0,0],"type":"VEC2"},{"bufferView":19,"componentType":5123,"count":180,"max":[119],"min":[0],"type":"SCALAR"}],"materials":[{"pbrMetallicRoughness":{"metallicFactor":0,"roughnessFactor":1},"alphaMode":"MASK","alphaCutoff":0.05,"doubleSided":true},{"pbrMetallicRoughness":{"metallicFactor":0,"roughnessFactor":1},"alphaMode":"MASK","alphaCutoff":0.05,"doubleSided":true}],"meshes":[{"primitives":[{"mode":4,"attributes":{"POSITION":0,"NORMAL":1,"TEXCOORD_0":2},"indices":3,"material":0}]},{"primitives":[{"mode":4,"attributes":{"POSITION":4,"NORMAL":5,"TEXCOORD_0":6},"indices":7,"material":1}]},{"primitives":[{"mode":4,"attributes":{"POSITION":8,"NORMAL":9,"TEXCOORD_0":10},"indices":11,"material":1}]},{"primitives":[{"mode":4,"attributes":{"POSITION":12,"NORMAL":13,"TEXCOORD_0":14},"indices":15,"material":1}]},{"primitives":[{"mode":4,"attributes":{"POSITION":16,"NORMAL":17,"TEXCOORD_0":18},"indices":19,"material":1}]}]}