{"asset":{"version":"2.0","generator":"Blockbench 4.12.5 glTF exporter"},"scenes":[{"nodes":[16],"name":"blockbench_export"}],"scene":0,"nodes":[{"name":"cylinder","mesh":0},{"rotation":[0,0,0.10886687485196457,0.9940563382223196],"name":"cube","mesh":1},{"rotation":[0.07698050545441137,0.7029039776384703,0.07698050545441136,0.7029039776384705],"name":"cube","mesh":2},{"rotation":[0.10886687485196474,0.9940563382223196,-6.086839563880512e-17,6.666173491031705e-18],"name":"cube","mesh":3},{"rotation":[-0.07698050545441137,-0.7029039776384703,0.07698050545441136,0.7029039776384705],"name":"cube","mesh":4},{"translation":[0,0.25,0],"name":"Layer","children":[1,2,3,4]},{"rotation":[0,0,0.10886687485196457,0.9940563382223196],"name":"cube","mesh":5},{"rotation":[0.07698050545441137,0.7029039776384703,0.07698050545441136,0.7029039776384705],"name":"cube","mesh":6},{"rotation":[0.10886687485196474,0.9940563382223196,-6.086839563880512e-17,6.666173491031705e-18],"name":"cube","mesh":7},{"rotation":[-0.07698050545441137,-0.7029039776384703,0.07698050545441136,0.7029039776384705],"name":"cube","mesh":8},{"rotation":[0,0.3826834323650898,0,0.9238795325112867],"translation":[0,0.375,0],"name":"Layer2","children":[6,7,8,9]},{"rotation":[0,0,0.10886687485196457,0.9940563382223196],"name":"cube","mesh":9},{"rotation":[0.07698050545441137,0.7029039776384703,0.07698050545441136,0.7029039776384705],"name":"cube","mesh":10},{"rotation":[0.10886687485196474,0.9940563382223196,-6.086839563880512e-17,6.666173491031705e-18],"name":"cube","mesh":11},{"rotation":[-0.07698050545441137,-0.7029039776384703,0.07698050545441136,0.7029039776384705],"name":"cube","mesh":12},{"translation":[0,0.46875,0],"name":"Layer3","children":[11,12,13,14]},{"children":[0,5,10,15]}],"bufferViews":[{"buffer":0,"byteOffset":0,"byteLength":720,"target":34962,"byteStride":12},{"buffer":0,"byteOffset":720,"byteLength":720,"target":34962,"byteStride":12},{"buffer":0,"byteOffset":1440,"byteLength":480,"target":34962,"byteStride":8},{"buffer":0,"byteOffset":1920,"byteLength":144,"target":34963},{"buffer":0,"byteOffset":2064,"byteLength":672,"target":34962,"byteStride":12},{"buffer":0,"byteOffset":2736,"byteLength":672,"target":34962,"byteStride":12},{"buffer":0,"byteOffset":3408,"byteLength":448,"target":34962,"byteStride":8},{"buffer":0,"byteOffset":3856,"byteLength":168,"target":34963},{"buffer":0,"byteOffset":4024,"byteLength":672,"target":34962,"byteStride":12},{"buffer":0,"byteOffset":4696,"byteLength":672,"target":34962,"byteStride":12},{"buffer":0,"byteOffset":5368,"byteLength":448,"target":34962,"byteStride":8},{"buffer":0,"byteOffset":5816,"byteLength":168,"target":34963},{"buffer":0,"byteOffset":5984,"byteLength":672,"target":34962,"byteStride":12},{"buffer":0,"byteOffset":6656,"byteLength":672,"target":34962,"byteStride":12},{"buffer":0,"byteOffset":7328,"byteLength":448,"target":34962,"byteStride":8},{"buffer":0,"byteOffset":7776,"byteLength":168,"target":34963},{"buffer":0,"byteOffset":7944,"byteLength":672,"target":34962,"byteStride":12},{"buffer":0,"byteOffset":8616,"byteLength":672,"target":34962,"byteStride":12},{"buffer":0,"byteOffset":9288,"byteLength":448,"target":34962,"byteStride":8},{"buffer":0,"byteOffset":9736,"byteLength":168,"target":34963},{"buffer":0,"byteOffset":9904,"byteLength":672,"target":34962,"byteStride":12},{"buffer":0,"byteOffset":10576,"byteLength":672,"target":34962,"byteStride":12},{"buffer":0,"byteOffset":11248,"byteLength":448,"target":34962,"byteStride":8},{"buffer":0,"byteOffset":11696,"byteLength":168,"target":34963},{"buffer":0,"byteOffset":11864,"byteLength":672,"target":34962,"byteStride":12},{"buffer":0,"byteOffset":12536,"byteLength":672,"target":34962,"byteStride":12},{"buffer":0,"byteOffset":13208,"byteLength":448,"target":34962,"byteStride":8},{"buffer":0,"byteOffset":13656,"byteLength":168,"target":34963},{"buffer":0,"byteOffset":13824,"byteLength":672,"target":34962,"byteStride":12},{"buffer":0,"byteOffset":14496,"byteLength":672,"target":34962,"byteStride":12},{"buffer":0,"byteOffset":15168,"byteLength":448,"target":34962,"byteStride":8},{"buffer":0,"byteOffset":15616,"byteLength":168,"target":34963},{"buffer":0,"byteOffset":15784,"byteLength":672,"target":34962,"byteStride":12},{"buffer":0,"byteOffset":16456,"byteLength":672,"target":34962,"byteStride":12},{"buffer":0,"byteOffset":17128,"byteLength":448,"target":34962,"byteStride":8},{"buffer":0,"byteOffset":17576,"byteLength":168,"target":34963},{"buffer":0,"byteOffset":17744,"byteLength":672,"target":34962,"byteStride":12},{"buffer":0,"byteOffset":18416,"byteLength":672,"target":34962,"byteStride":12},{"buffer":0,"byteOffset":19088,"byteLength":448,"target":34962,"byteStride":8},{"buffer":0,"byteOffset":19536,"byteLength":168,"target":34963},{"buffer":0,"byteOffset":19704,"byteLength":672,"target":34962,"byteStride":12},{"buffer":0,"byteOffset":20376,"byteLength":672,"target":34962,"byteStride":12},{"buffer":0,"byteOffset":21048,"byteLength":448,"target":34962,"byteStride":8},{"buffer":0,"byteOffset":21496,"byteLength":168,"target":34963},{"buffer":0,"byteOffset":21664,"byteLength":672,"target":34962,"byteStride":12},{"buffer":0,"byteOffset":22336,"byteLength":672,"target":34962,"byteStride":12},{"buffer":0,"byteOffset":23008,"byteLength":448,"target":34962,"byteStride":8},{"buffer":0,"byteOffset":23456,"byteLength":168,"target":34963},{"buffer":0,"byteOffset":23624,"byteLength":672,"target":34962,"byteStride":12},{"buffer":0,"byteOffset":24296,"byteLength":672,"target":34962,"byteStride":12},{"buffer":0,"byteOffset":24968,"byteLength":448,"target":34962,"byteStride":8},{"buffer":0,"byteOffset":25416,"byteLength":168,"target":34963}],"buffers":[{"byteLength":25584,"uri":"data:application/octet-stream;base64,"}],"accessors":[{"bufferView":0,"componentType":5126,"count":60,"max":[0.1443375051021576,0.5,0.125],"min":[-0.1443375051021576,0,-0.125],"type":"VEC3"},{"bufferView":1,"componentType":5126,"count":60,"max":[0.8660255074501038,1,1],"min":[-0.8660255074501038,-1,-1],"type":"VEC3"},{"bufferView":2,"componentType":5126,"count":60,"max":[0.1443375051021576,0.5],"min":[0,0],"type":"VEC2"},{"bufferView":3,"componentType":5123,"count":72,"max":[59],"min":[0],"type":"SCALAR"},{"bufferView":4,"componentType":5126,"count":56,"max":[0.5,0.0625,0.1875],"min":[0,0,-0.1875],"type":"VEC3"},{"bufferView":5,"componentType":5126,"count":56,"max":[1,1,1],"min":[-1,-1,-1],"type":"VEC3"},{"bufferView":6,"componentType":5126,"count":56,"max":[0.4375,0.375],"min":[0,0],"type":"VEC2"},{"bufferView":7,"componentType":5123,"count":84,"max":[55],"min":[0],"type":"SCALAR"},{"bufferView":8,"componentType":5126,"count":56,"max":[0.5,0.0625,0.1875],"min":[0,0,-0.1875],"type":"VEC3"},{"bufferView":9,"componentType":5126,"count":56,"max":[1,1,1],"min":[-1,-1,-1],"type":"VEC3"},{"bufferView":10,"componentType":5126,"count":56,"max":[0.4375,0.375],"min":[0,0],"type":"VEC2"},{"bufferView":11,"componentType":5123,"count":84,"max":[55],"min":[0],"type":"SCALAR"},{"bufferView":12,"componentType":5126,"count":56,"max":[0.5,0.0625,0.1875],"min":[0,0,-0.1875],"type":"VEC3"},{"bufferView":13,"componentType":5126,"count":56,"max":[1,1,1],"min":[-1,-1,-1],"type":"VEC3"},{"bufferView":14,"componentType":5126,"count":56,"max":[0.4375,0.375],"min":[0,0],"type":"VEC2"},{"bufferView":15,"componentType":5123,"count":84,"max":[55],"min":[0],"type":"SCALAR"},{"bufferView":16,"componentType":5126,"count":56,"max":[0.5,0.0625,0.1875],"min":[0,0,-0.1875],"type":"VEC3"},{"bufferView":17,"componentType":5126,"count":56,"max":[1,1,1],"min":[-1,-1,-1],"type":"VEC3"},{"bufferView":18,"componentType":5126,"count":56,"max":[0.4375,0.375],"min":[0,0],"type":"VEC2"},{"bufferView":19,"componentType":5123,"count":84,"max":[55],"min":[0],"type":"SCALAR"},{"bufferView":20,"componentType":5126,"count":56,"max":[0.4000000059604645,0.05000000074505806,0.15000000596046448],"min":[0,0,-0.15000000596046448],"type":"VEC3"},{"bufferView":21,"componentType":5126,"count":56,"max":[1,1,1],"min":[-1,-1,-1],"type":"VEC3"},{"bufferView":22,"componentType":5126,"count":56,"max":[0.4375,0.375],"min":[0,0],"type":"VEC2"},{"bufferView":23,"componentType":5123,"count":84,"max":[55],"min":[0],"type":"SCALAR"},{"bufferView":24,"componentType":5126,"count":56,"max":[0.4000000059604645,0.05000000074505806,0.15000000596046448],"min":[0,0,-0.15000000596046448],"type":"VEC3"},{"bufferView":25,"componentType":5126,"count":56,"max":[1,1,1],"min":[-1,-1,-1],"type":"VEC3"},{"bufferView":26,"componentType":5126,"count":56,"max":[0.4375,0.375],"min":[0,0],"type":"VEC2"},{"bufferView":27,"componentType":5123,"count":84,"max":[55],"min":[0],"type":"SCALAR"},{"bufferView":28,"componentType":5126,"count":56,"max":[0.4000000059604645,0.05000000074505806,0.15000000596046448],"min":[0,0,-0.15000000596046448],"type":"VEC3"},{"bufferView":29,"componentType":5126,"count":56,"max":[1,1,1],"min":[-1,-1,-1],"type":"VEC3"},{"bufferView":30,"componentType":5126,"count":56,"max":[0.4375,0.375],"min":[0,0],"type":"VEC2"},{"bufferView":31,"componentType":5123,"count":84,"max":[55],"min":[0],"type":"SCALAR"},{"bufferView":32,"componentType":5126,"count":56,"max":[0.4000000059604645,0.05000000074505806,0.15000000596046448],"min":[0,0,-0.15000000596046448],"type":"VEC3"},{"bufferView":33,"componentType":5126,"count":56,"max":[1,1,1],"min":[-1,-1,-1],"type":"VEC3"},{"bufferView":34,"componentType":5126,"count":56,"max":[0.4375,0.375],"min":[0,0],"type":"VEC2"},{"bufferView":35,"componentType":5123,"count":84,"max":[55],"min":[0],"type":"SCALAR"},{"bufferView":36,"componentType":5126,"count":56,"max":[0.3199999928474426,0.03999999910593033,0.11999999731779099],"min":[0,0,-0.11999999731779099],"type":"VEC3"},{"bufferView":37,"componentType":5126,"count":56,"max":[1,1,1],"min":[-1,-1,-1],"type":"VEC3"},{"bufferView":38,"componentType":5126,"count":56,"max":[0.4375,0.375],"min":[0,0],"type":"VEC2"},{"bufferView":39,"componentType":5123,"count":84,"max":[55],"min":[0],"type":"SCALAR"},{"bufferView":40,"componentType":5126,"count":56,"max":[0.3199999928474426,0.03999999910593033,0.11999999731779099],"min":[0,0,-0.11999999731779099],"type":"VEC3"},{"bufferView":41,"componentType":5126,"count":56,"max":[1,1,1],"min":[-1,-1,-1],"type":"VEC3"},{"bufferView":42,"componentType":5126,"count":56,"max":[0.4375,0.375],"min":[0,0],"type":"VEC2"},{"bufferView":43,"componentType":5123,"count":84,"max":[55],"min":[0],"type":"SCALAR"},{"bufferView":44,"componentType":5126,"count":56,"max":[0.3199999928474426,0.03999999910593033,0.11999999731779099],"min":[0,0,-0.11999999731779099],"type":"VEC3"},{"bufferView":45,"componentType":5126,"count":56,"max":[1,1,1],"min":[-1,-1,-1],"type":"VEC3"},{"bufferView":46,"componentType":5126,"count":56,"max":[0.4375,0.375],"min":[0,0],"type":"VEC2"},{"bufferView":47,"componentType":5123,"count":84,"max":[55],"min":[0],"type":"SCALAR"},{"bufferView":48,"componentType":5126,"count":56,"max":[0.3199999928474426,0.03999999910593033,0.11999999731779099],"min":[0,0,-0.11999999731779099],"type":"VEC3"},{"bufferView":49,"componentType":5126,"count":56,"max":[1,1,1],"min":[-1,-1,-1],"type":"VEC3"},{"bufferView":50,"componentType":5126,"count":56,"max":[0.4375,0.375],"min":[0,0],"type":"VEC2"},{"bufferView":51,"componentType":5123,"count":84,"max":[55],"min":[0],"type":"SCALAR"}],"materials":[{"pbrMetallicRoughness":{"metallicFactor":0,"roughnessFactor":1},"alphaMode":"MASK","alphaCutoff":0.05,"doubleSided":true},{"pbrMetallicRoughness":{"metallicFactor":0,"roughnessFactor":1},"alphaMode":"MASK","alphaCutoff":0.05,"doubleSided":true}],"meshes":[{"primitives":[{"mode":4,"attributes":{"POSITION":0,"NORMAL":1,"TEXCOORD_0":2},"indices":3,"material":0}]},{"primitives":[{"mode":4,"attributes":{"POSITION":4,"NORMAL":5,"TEXCOORD_0":6},"indices":7,"material":1}]},{"primitives":[{"mode":4,"attributes":{"POSITION":8,"NORMAL":9,"TEXCOORD_0":10},"indices":11,"material":1}]},{"primitives":[{"mode":4,"attributes":{"POSITION":12,"NORMAL":13,"TEXCOORD_0":14},"indices":15,"material":1}]},{"primitives":[{"mode":4,"attributes":{"POSITION":16,"NORMAL":17,"TEXCOORD_0":18},"indices":19,"material":1}]},{"primitives":[{"mode":4,"attributes":{"POSITION":20,"NORMAL":21,"TEXCOORD_0":22},"indices":23,"material":1}]},{"primitives":[{"mode":4,"attributes":{"POSITION":24,"NORMAL":25,"TEXCOORD_0":26},"indices":27,"material":1}]},{"primitives":[{"mode":4,"attributes":{"POSITION":28,"NORMAL":29,"TEXCOORD_0":30},"indices":31,"material":1}]},{"primitives":[{"mode":4,"attributes":{"POSITION":32,"NORMAL":33,"TEXCOORD_0":34},"indices":35,"material":1}]},{"primitives":[{"mode":4,"attributes":{"POSITION":36,"NORMAL":37,"TEXCOORD_0":38},"indices":39,"material":1}]},{"primitives":[{"mode":4,"attributes":{"POSITION":40,"NORMAL":41,"TEXCOORD_0":42},"indices":43,"material":1}]},{"primitives":[{"mode":4,"attributes":{"POSITION":44,"NORMAL":45,"TEXCOORD_0":46},"indices":47,"material":1}]},{"primitives":[{"mode":4,"attributes":{"POSITION":48,"NORMAL":49,"TEXCOORD_0":50},"indices":51,"material":1}]}]}