{"asset":{"version":"2.0","generator":"Blockbench 4.12.5 glTF exporter"},"scenes":[{"nodes":[12],"name":"blockbench_export"}],"scene":0,"nodes":[{"rotation":[0.021628284541570248,-0.0028474439984371,-0.13049516666743613,0.991208918869732],"translation":[0,-0.0625,0],"name":"cylinder","mesh":0},{"rotation":[0.011376107230962195,0.13002950065171942,0.08641011328638343,0.9876721143508955],"translation":[0,-0.0625,0],"name":"cylinder","mesh":1},{"rotation":[-0.08508979249239554,0.21561602589713333,0.018863968306212266,0.9725809001258815],"translation":[0,-0.0625,0],"name":"cylinder","mesh":2},{"rotation":[0.15197862316051333,0.022628533625417294,-0.0372907070240335,0.9874208073247424],"translation":[0,-0.0625,0],"name":"cylinder","mesh":3},{"rotation":[-0.13024675397029553,0.00853679583970657,-0.06484361241649522,0.9893220972594173],"translation":[0,-0.0625,0],"name":"cylinder","mesh":4},{"rotation":[0.10759982886859237,-0.016561197646394736,0.15121921623392837,0.982487023935463],"translation":[0,-0.0625,0],"name":"cylinder","mesh":5},{"rotation":[-0.10677500749280291,-0.021238885396027335,0.19393073588573764,0.9749558334616305],"translation":[0,-0.0625,0],"name":"cylinder","mesh":6},{"rotation":[0.04360904886019459,-0.0009515439955940222,-0.02179413277851825,0.9988104731118742],"translation":[0,-0.0625,0],"name":"cylinder","mesh":7},{"rotation":[-0.19475463088753864,0.008999403034435489,0.02197448755524417,0.9805645141394659],"translation":[0,-0.0625,0],"name":"cylinder","mesh":8},{"rotation":[-1,0,0,6.123233995736766e-17],"translation":[0.265625,0.765625,0.03125],"name":"cone","mesh":9},{"rotation":[-1,0,0,6.123233995736766e-17],"translation":[-0.125,0.796875,-0.109375],"name":"cone","mesh":10},{"rotation":[-1,0,0,6.123233995736766e-17],"translation":[0.078125,0.75,0.3125],"name":"cone","mesh":11},{"children":[0,1,2,3,4,5,6,7,8,9,10,11]}],"bufferViews":[{"buffer":0,"byteOffset":0,"byteLength":1008,"target":34962,"byteStride":12},{"buffer":0,"byteOffset":1008,"byteLength":1008,"target":34962,"byteStride":12},{"buffer":0,"byteOffset":2016,"byteLength":672,"target":34962,"byteStride":8},{"buffer":0,"byteOffset":2688,"byteLength":216,"target":34963},{"buffer":0,"byteOffset":2904,"byteLength":1008,"target":34962,"byteStride":12},{"buffer":0,"byteOffset":3912,"byteLength":1008,"target":34962,"byteStride":12},{"buffer":0,"byteOffset":4920,"byteLength":672,"target":34962,"byteStride":8},{"buffer":0,"byteOffset":5592,"byteLength":216,"target":34963},{"buffer":0,"byteOffset":5808,"byteLength":1008,"target":34962,"byteStride":12},{"buffer":0,"byteOffset":6816,"byteLength":1008,"target":34962,"byteStride":12},{"buffer":0,"byteOffset":7824,"byteLength":672,"target":34962,"byteStride":8},{"buffer":0,"byteOffset":8496,"byteLength":216,"target":34963},{"buffer":0,"byteOffset":8712,"byteLength":1008,"target":34962,"byteStride":12},{"buffer":0,"byteOffset":9720,"byteLength":1008,"target":34962,"byteStride":12},{"buffer":0,"byteOffset":10728,"byteLength":672,"target":34962,"byteStride":8},{"buffer":0,"byteOffset":11400,"byteLength":216,"target":34963},{"buffer":0,"byteOffset":11616,"byteLength":1008,"target":34962,"byteStride":12},{"buffer":0,"byteOffset":12624,"byteLength":1008,"target":34962,"byteStride":12},{"buffer":0,"byteOffset":13632,"byteLength":672,"target":34962,"byteStride":8},{"buffer":0,"byteOffset":14304,"byteLength":216,"target":34963},{"buffer":0,"byteOffset":14520,"byteLength":1008,"target":34962,"byteStride":12},{"buffer":0,"byteOffset":15528,"byteLength":1008,"target":34962,"byteStride":12},{"buffer":0,"byteOffset":16536,"byteLength":672,"target":34962,"byteStride":8},{"buffer":0,"byteOffset":17208,"byteLength":216,"target":34963},{"buffer":0,"byteOffset":17424,"byteLength":1008,"target":34962,"byteStride":12},{"buffer":0,"byteOffset":18432,"byteLength":1008,"target":34962,"byteStride":12},{"buffer":0,"byteOffset":19440,"byteLength":672,"target":34962,"byteStride":8},{"buffer":0,"byteOffset":20112,"byteLength":216,"target":34963},{"buffer":0,"byteOffset":20328,"byteLength":1008,"target":34962,"byteStride":12},{"buffer":0,"byteOffset":21336,"byteLength":1008,"target":34962,"byteStride":12},{"buffer":0,"byteOffset":22344,"byteLength":672,"target":34962,"byteStride":8},{"buffer":0,"byteOffset":23016,"byteLength":216,"target":34963},{"buffer":0,"byteOffset":23232,"byteLength":1008,"target":34962,"byteStride":12},{"buffer":0,"byteOffset":24240,"byteLength":1008,"target":34962,"byteStride":12},{"buffer":0,"byteOffset":25248,"byteLength":672,"target":34962,"byteStride":8},{"buffer":0,"byteOffset":25920,"byteLength":216,"target":34963},{"buffer":0,"byteOffset":26136,"byteLength":432,"target":34962,"byteStride":12},{"buffer":0,"byteOffset":26568,"byteLength":432,"target":34962,"byteStride":12},{"buffer":0,"byteOffset":27000,"byteLength":288,"target":34962,"byteStride":8},{"buffer":0,"byteOffset":27288,"byteLength":72,"target":34963},{"buffer":0,"byteOffset":27360,"byteLength":432,"target":34962,"byteStride":12},{"buffer":0,"byteOffset":27792,"byteLength":432,"target":34962,"byteStride":12},{"buffer":0,"byteOffset":28224,"byteLength":288,"target":34962,"byteStride":8},{"buffer":0,"byteOffset":28512,"byteLength":72,"target":34963},{"buffer":0,"byteOffset":28584,"byteLength":432,"target":34962,"byteStride":12},{"buffer":0,"byteOffset":29016,"byteLength":432,"target":34962,"byteStride":12},{"buffer":0,"byteOffset":29448,"byteLength":288,"target":34962,"byteStride":8},{"buffer":0,"byteOffset":29736,"byteLength":72,"target":34963}],"buffers":[{"byteLength":29808,"uri":"data:application/octet-stream;base64,"}],"accessors":[{"bufferView":0,"componentType":5126,"count":84,"max":[0.1346687525510788,0.796875,0.0625],"min":[-0.009668749757111073,0,-0.0625],"type":"VEC3"},{"bufferView":1,"componentType":5126,"count":84,"max":[0.8660255074501038,1,1],"min":[-0.8660255074501038,-1,-1],"type":"VEC3"},{"bufferView":2,"componentType":5126,"count":84,"max":[0.07217500358819962,0.875],"min":[0,0],"type":"VEC2"},{"bufferView":3,"componentType":5123,"count":108,"max":[83],"min":[0],"type":"SCALAR"},{"bufferView":4,"componentType":5126,"count":84,"max":[0.0721687525510788,0.796875,0.125],"min":[-0.0721687525510788,0,0],"type":"VEC3"},{"bufferView":5,"componentType":5126,"count":84,"max":[0.8660255074501038,1,1],"min":[-0.8660255074501038,-1,-1],"type":"VEC3"},{"bufferView":6,"componentType":5126,"count":84,"max":[0.07217500358819962,0.875],"min":[0,0],"type":"VEC2"},{"bufferView":7,"componentType":5123,"count":108,"max":[83],"min":[0],"type":"SCALAR"},{"bufferView":8,"componentType":5126,"count":84,"max":[0.009668749757111073,0.796875,0.0625],"min":[-0.1346687525510788,0,-0.0625],"type":"VEC3"},{"bufferView":9,"componentType":5126,"count":84,"max":[0.8660255074501038,1,1],"min":[-0.8660255074501038,-1,-1],"type":"VEC3"},{"bufferView":10,"componentType":5126,"count":84,"max":[0.07217500358819962,0.875],"min":[0,0],"type":"VEC2"},{"bufferView":11,"componentType":5123,"count":108,"max":[83],"min":[0],"type":"SCALAR"},{"bufferView":12,"componentType":5126,"count":84,"max":[0.0721687525510788,0.796875,0.125],"min":[-0.0721687525510788,0,0],"type":"VEC3"},{"bufferView":13,"componentType":5126,"count":84,"max":[0.8660255074501038,1,1],"min":[-0.8660255074501038,-1,-1],"type":"VEC3"},{"bufferView":14,"componentType":5126,"count":84,"max":[0.07217500358819962,0.875],"min":[0,0],"type":"VEC2"},{"bufferView":15,"componentType":5123,"count":108,"max":[83],"min":[0],"type":"SCALAR"},{"bufferView":16,"componentType":5126,"count":84,"max":[0.0721687525510788,0.796875,0.0625],"min":[-0.0721687525510788,0,-0.0625],"type":"VEC3"},{"bufferView":17,"componentType":5126,"count":84,"max":[0.8660255074501038,1,1],"min":[-0.8660255074501038,-1,-1],"type":"VEC3"},{"bufferView":18,"componentType":5126,"count":84,"max":[0.07217500358819962,0.875],"min":[0,0],"type":"VEC2"},{"bufferView":19,"componentType":5123,"count":108,"max":[83],"min":[0],"type":"SCALAR"},{"bufferView":20,"componentType":5126,"count":84,"max":[0.009668749757111073,0.796875,0.0625],"min":[-0.1346687525510788,0,-0.0625],"type":"VEC3"},{"bufferView":21,"componentType":5126,"count":84,"max":[0.8660255074501038,1,1],"min":[-0.8660255074501038,-1,-1],"type":"VEC3"},{"bufferView":22,"componentType":5126,"count":84,"max":[0.07217500358819962,0.875],"min":[0,0],"type":"VEC2"},{"bufferView":23,"componentType":5123,"count":108,"max":[83],"min":[0],"type":"SCALAR"},{"bufferView":24,"componentType":5126,"count":84,"max":[0.0721687525510788,0.796875,0],"min":[-0.0721687525510788,0,-0.125],"type":"VEC3"},{"bufferView":25,"componentType":5126,"count":84,"max":[0.8660255074501038,1,1],"min":[-0.8660255074501038,-1,-1],"type":"VEC3"},{"bufferView":26,"componentType":5126,"count":84,"max":[0.07217500358819962,0.875],"min":[0,0],"type":"VEC2"},{"bufferView":27,"componentType":5123,"count":108,"max":[83],"min":[0],"type":"SCALAR"},{"bufferView":28,"componentType":5126,"count":84,"max":[0.1346687525510788,0.796875,0.125],"min":[-0.009668749757111073,0,0],"type":"VEC3"},{"bufferView":29,"componentType":5126,"count":84,"max":[0.8660255074501038,1,1],"min":[-0.8660255074501038,-1,-1],"type":"VEC3"},{"bufferView":30,"componentType":5126,"count":84,"max":[0.07217500358819962,0.875],"min":[0,0],"type":"VEC2"},{"bufferView":31,"componentType":5123,"count":108,"max":[83],"min":[0],"type":"SCALAR"},{"bufferView":32,"componentType":5126,"count":84,"max":[0.0721687525510788,0.796875,0],"min":[-0.0721687525510788,0,-0.125],"type":"VEC3"},{"bufferView":33,"componentType":5126,"count":84,"max":[0.8660255074501038,1,1],"min":[-0.8660255074501038,-1,-1],"type":"VEC3"},{"bufferView":34,"componentType":5126,"count":84,"max":[0.07217500358819962,0.875],"min":[0,0],"type":"VEC2"},{"bufferView":35,"componentType":5123,"count":108,"max":[83],"min":[0],"type":"SCALAR"},{"bufferView":36,"componentType":5126,"count":36,"max":[0.1082531213760376,0.125,0.09375],"min":[-0.1082531213760376,0,-0.09375],"type":"VEC3"},{"bufferView":37,"componentType":5126,"count":36,"max":[0.6928211450576782,0.6000003814697266,0.800000011920929],"min":[-0.6928211450576782,-1,-0.800000011920929],"type":"VEC3"},{"bufferView":38,"componentType":5126,"count":36,"max":[0.1082562506198883,0.32625627517700195],"min":[0,0],"type":"VEC2"},{"bufferView":39,"componentType":5123,"count":36,"max":[35],"min":[0],"type":"SCALAR"},{"bufferView":40,"componentType":5126,"count":36,"max":[0.1082531213760376,0.125,0.09375],"min":[-0.1082531213760376,0,-0.09375],"type":"VEC3"},{"bufferView":41,"componentType":5126,"count":36,"max":[0.6928211450576782,0.6000003814697266,0.800000011920929],"min":[-0.6928211450576782,-1,-0.800000011920929],"type":"VEC3"},{"bufferView":42,"componentType":5126,"count":36,"max":[0.1082562506198883,0.32625627517700195],"min":[0,0],"type":"VEC2"},{"bufferView":43,"componentType":5123,"count":36,"max":[35],"min":[0],"type":"SCALAR"},{"bufferView":44,"componentType":5126,"count":36,"max":[0.1082531213760376,0.125,0.09375],"min":[-0.1082531213760376,0,-0.09375],"type":"VEC3"},{"bufferView":45,"componentType":5126,"count":36,"max":[0.6928211450576782,0.6000003814697266,0.800000011920929],"min":[-0.6928211450576782,-1,-0.800000011920929],"type":"VEC3"},{"bufferView":46,"componentType":5126,"count":36,"max":[0.1082562506198883,0.32625627517700195],"min":[0,0],"type":"VEC2"},{"bufferView":47,"componentType":5123,"count":36,"max":[35],"min":[0],"type":"SCALAR"}],"materials":[{"pbrMetallicRoughness":{"metallicFactor":0,"roughnessFactor":1},"alphaMode":"MASK","alphaCutoff":0.05,"doubleSided":true},{"pbrMetallicRoughness":{"metallicFactor":0,"roughnessFactor":1},"alphaMode":"MASK","alphaCutoff":0.05,"doubleSided":true}],"meshes":[{"primitives":[{"mode":4,"attributes":{"POSITION":0,"NORMAL":1,"TEXCOORD_0":2},"indices":3,"material":0}]},{"primitives":[{"mode":4,"attributes":{"POSITION":4,"NORMAL":5,"TEXCOORD_0":6},"indices":7,"material":0}]},{"primitives":[{"mode":4,"attributes":{"POSITION":8,"NORMAL":9,"TEXCOORD_0":10},"indices":11,"material":0}]},{"primitives":[{"mode":4,"attributes":{"POSITION":12,"NORMAL":13,"TEXCOORD_0":14},"indices":15,"material":0}]},{"primitives":[{"mode":4,"attributes":{"POSITION":16,"NORMAL":17,"TEXCOORD_0":18},"indices":19,"material":0}]},{"primitives":[{"mode":4,"attributes":{"POSITION":20,"NORMAL":21,"TEXCOORD_0":22},"indices":23,"material":0}]},{"primitives":[{"mode":4,"attributes":{"POSITION":24,"NORMAL":25,"TEXCOORD_0":26},"indices":27,"material":0}]},{"primitives":[{"mode":4,"attributes":{"POSITION":28,"NORMAL":29,"TEXCOORD_0":30},"indices":31,"material":0}]},{"primitives":[{"mode":4,"attributes":{"POSITION":32,"NORMAL":33,"TEXCOORD_0":34},"indices":35,"material":0}]},{"primitives":[{"mode":4,"attributes":{"POSITION":36,"NORMAL":37,"TEXCOORD_0":38},"indices":39,"material":1}]},{"primitives":[{"mode":4,"attributes":{"POSITION":40,"NORMAL":41,"TEXCOORD_0":42},"indices":43,"material":1}]},{"primitives":[{"mode":4,"attributes":{"POSITION":44,"NORMAL":45,"TEXCOORD_0":46},"indices":47,"material":1}]}]}