{"asset":{"version":"2.0","generator":"Blockbench 4.12.5 glTF exporter"},"scenes":[{"nodes":[10],"name":"blockbench_export"}],"scene":0,"nodes":[{"name":"cylinder","mesh":0},{"translation":[0,1,0],"name":"sphere","mesh":1},{"rotation":[-0.04859179834481568,-0.16671090768351832,-0.9454645398775039,0.2755777825354831],"translation":[0,0.268074375,0.230334375],"name":"cube","mesh":2},{"name":"bone","children":[2]},{"rotation":[-0.04859179834481568,-0.16671090768351832,-0.9454645398775039,0.2755777825354831],"translation":[0,0.268074375,0.230334375],"name":"cube","mesh":3},{"rotation":[0,-1,0,6.123233995736766e-17],"translation":[0,0.125,0],"name":"bone2","children":[4]},{"rotation":[-0.04859179834481568,-0.16671090768351832,-0.9454645398775039,0.2755777825354831],"translation":[0,0.268074375,0.230334375],"name":"cube","mesh":4},{"rotation":[0,0.7071067811865475,0,0.7071067811865476],"translation":[0,0.25,0],"name":"bone3","children":[6]},{"rotation":[-0.04859179834481568,-0.16671090768351832,-0.9454645398775039,0.2755777825354831],"translation":[0,0.268074375,0.230334375],"name":"cube","mesh":5},{"rotation":[0,-0.7071067811865475,0,0.7071067811865476],"translation":[0,0.375,0],"name":"bone4","children":[8]},{"children":[0,1,3,5,7,9]}],"bufferViews":[{"buffer":0,"byteOffset":0,"byteLength":720,"target":34962,"byteStride":12},{"buffer":0,"byteOffset":720,"byteLength":720,"target":34962,"byteStride":12},{"buffer":0,"byteOffset":1440,"byteLength":480,"target":34962,"byteStride":8},{"buffer":0,"byteOffset":1920,"byteLength":144,"target":34963},{"buffer":0,"byteOffset":2064,"byteLength":720,"target":34962,"byteStride":12},{"buffer":0,"byteOffset":2784,"byteLength":720,"target":34962,"byteStride":12},{"buffer":0,"byteOffset":3504,"byteLength":480,"target":34962,"byteStride":8},{"buffer":0,"byteOffset":3984,"byteLength":144,"target":34963},{"buffer":0,"byteOffset":4128,"byteLength":1440,"target":34962,"byteStride":12},{"buffer":0,"byteOffset":5568,"byteLength":1440,"target":34962,"byteStride":12},{"buffer":0,"byteOffset":7008,"byteLength":960,"target":34962,"byteStride":8},{"buffer":0,"byteOffset":7968,"byteLength":360,"target":34963},{"buffer":0,"byteOffset":8328,"byteLength":1440,"target":34962,"byteStride":12},{"buffer":0,"byteOffset":9768,"byteLength":1440,"target":34962,"byteStride":12},{"buffer":0,"byteOffset":11208,"byteLength":960,"target":34962,"byteStride":8},{"buffer":0,"byteOffset":12168,"byteLength":360,"target":34963},{"buffer":0,"byteOffset":12528,"byteLength":1440,"target":34962,"byteStride":12},{"buffer":0,"byteOffset":13968,"byteLength":1440,"target":34962,"byteStride":12},{"buffer":0,"byteOffset":15408,"byteLength":960,"target":34962,"byteStride":8},{"buffer":0,"byteOffset":16368,"byteLength":360,"target":34963},{"buffer":0,"byteOffset":16728,"byteLength":1440,"target":34962,"byteStride":12},{"buffer":0,"byteOffset":18168,"byteLength":1440,"target":34962,"byteStride":12},{"buffer":0,"byteOffset":19608,"byteLength":960,"target":34962,"byteStride":8},{"buffer":0,"byteOffset":20568,"byteLength":360,"target":34963}],"buffers":[{"byteLength":20928,"uri":"data:application/octet-stream;base64,"}],"accessors":[{"bufferView":0,"componentType":5126,"count":60,"max":[0.0721687525510788,0.8125,0.0625],"min":[-0.0721687525510788,0,-0.0625],"type":"VEC3"},{"bufferView":1,"componentType":5126,"count":60,"max":[0.8660255074501038,1,1],"min":[-0.8660255074501038,-1,-1],"type":"VEC3"},{"bufferView":2,"componentType":5126,"count":60,"max":[0.453125,0.640625],"min":[0.16164530813694,0],"type":"VEC2"},{"bufferView":3,"componentType":5123,"count":72,"max":[59],"min":[0],"type":"SCALAR"},{"bufferView":4,"componentType":5126,"count":60,"max":[0.1875,0.3125,0.16237999498844147],"min":[-0.1875,-0.3125,-0.16237999498844147],"type":"VEC3"},{"bufferView":5,"componentType":5126,"count":60,"max":[0.8660257458686829,0.7205771803855896,1],"min":[-0.8660257458686829,-0.7205771803855896,-1],"type":"VEC3"},{"bufferView":6,"componentType":5126,"count":60,"max":[0.5625,0.5625],"min":[0,0],"type":"VEC2"},{"bufferView":7,"componentType":5123,"count":72,"max":[59],"min":[0],"type":"SCALAR"},{"bufferView":8,"componentType":5126,"count":120,"max":[0.1875,0.05078125,0.3046875],"min":[-0.1875,-0.04296875,-0.2578125],"type":"VEC3"},{"bufferView":9,"componentType":5126,"count":120,"max":[1,1,1],"min":[-1,-1,-1],"type":"VEC3"},{"bufferView":10,"componentType":5126,"count":120,"max":[0.6367343664169312,0.578125],"min":[0.007677166722714901,0],"type":"VEC2"},{"bufferView":11,"componentType":5123,"count":180,"max":[119],"min":[0],"type":"SCALAR"},{"bufferView":12,"componentType":5126,"count":120,"max":[0.1875,0.05078125,0.3046875],"min":[-0.1875,-0.04296875,-0.2578125],"type":"VEC3"},{"bufferView":13,"componentType":5126,"count":120,"max":[1,1,1],"min":[-1,-1,-1],"type":"VEC3"},{"bufferView":14,"componentType":5126,"count":120,"max":[0.6523593664169312,0.59375],"min":[0,0.014764845371246338],"type":"VEC2"},{"bufferView":15,"componentType":5123,"count":180,"max":[119],"min":[0],"type":"SCALAR"},{"bufferView":16,"componentType":5126,"count":120,"max":[0.1875,0.05078125,0.3046875],"min":[-0.1875,-0.04296875,-0.2578125],"type":"VEC3"},{"bufferView":17,"componentType":5126,"count":120,"max":[1,1,1],"min":[-1,-1,-1],"type":"VEC3"},{"bufferView":18,"componentType":5126,"count":120,"max":[0.6523593664169312,0.609375],"min":[0.007677166722714901,0.09375],"type":"VEC2"},{"bufferView":19,"componentType":5123,"count":180,"max":[119],"min":[0],"type":"SCALAR"},{"bufferView":20,"componentType":5126,"count":120,"max":[0.1875,0.05078125,0.3046875],"min":[-0.1875,-0.04296875,-0.2578125],"type":"VEC3"},{"bufferView":21,"componentType":5126,"count":120,"max":[1,1,1],"min":[-1,-1,-1],"type":"VEC3"},{"bufferView":22,"componentType":5126,"count":120,"max":[0.640625,0.609375],"min":[0.13267716765403748,0.140625],"type":"VEC2"},{"bufferView":23,"componentType":5123,"count":180,"max":[119],"min":[0],"type":"SCALAR"}],"materials":[{"pbrMetallicRoughness":{"metallicFactor":0,"roughnessFactor":1,"baseColorTexture":{"index":0}},"alphaMode":"MASK","alphaCutoff":0.05}],"textures":[{"sampler":0,"source":0,"name":"texture"}],"samplers":[{"magFilter":9728,"minFilter":9728,"wrapS":33071,"wrapT":33071}],"images":[{"mimeType":"image/png","uri":"data:image/png;base64,"}],"meshes":[{"primitives":[{"mode":4,"attributes":{"POSITION":0,"NORMAL":1,"TEXCOORD_0":2},"indices":3,"material":0}]},{"primitives":[{"mode":4,"attributes":{"POSITION":4,"NORMAL":5,"TEXCOORD_0":6},"indices":7,"material":0}]},{"primitives":[{"mode":4,"attributes":{"POSITION":8,"NORMAL":9,"TEXCOORD_0":10},"indices":11,"material":0}]},{"primitives":[{"mode":4,"attributes":{"POSITION":12,"NORMAL":13,"TEXCOORD_0":14},"indices":15,"material":0}]},{"primitives":[{"mode":4,"attributes":{"POSITION":16,"NORMAL":17,"TEXCOORD_0":18},"indices":19,"material":0}]},{"primitives":[{"mode":4,"attributes":{"POSITION":20,"NORMAL":21,"TEXCOORD_0":22},"indices":23,"material":0}]}]}