{"asset":{"version":"2.0","generator":"Blockbench 4.12.1 glTF exporter"},"scenes":[{"nodes":[16],"name":"blockbench_export"}],"scene":0,"nodes":[{"name":"Body","mesh":0},{"rotation":[0,0,0.21643961393810288,0.9762960071199334],"name":"cube","mesh":1},{"rotation":[0,0,-0.21643961393810288,0.9762960071199334],"translation":[0.4003266108007374,-0.15848184815276234,0],"name":"cube","mesh":2},{"translation":[-0.03125000000000001,0.5625,0],"name":"Roof","children":[1,2]},{"translation":[-0.390625,-0.375,0.0625],"name":"cube","mesh":3},{"translation":[0.328125,-0.375,0.0625],"name":"cube","mesh":4},{"translation":[0.328125,-0.375,-0.65625],"name":"cube","mesh":5},{"translation":[-0.390625,-0.375,-0.65625],"name":"cube","mesh":6},{"name":"cube","mesh":7},{"translation":[0,0.375,0.328125],"name":"Framing","children":[4,5,6,7,8]},{"translation":[0.015625,-0.34375,-0.0625],"name":"cube","mesh":8},{"translation":[0.015625,0,-0.125],"name":"cube","mesh":9},{"translation":[0.015625,0,0],"name":"cube","mesh":10},{"translation":[0.109375,0,0],"name":"cube","mesh":11},{"translation":[-0.015625,0,0],"name":"cube","mesh":12},{"translation":[0.234375,0.71875,0.3125],"name":"Chimney","children":[10,11,12,13,14]},{"children":[0,3,9,15]}],"bufferViews":[{"buffer":0,"byteOffset":0,"byteLength":1260,"target":34962,"byteStride":12},{"buffer":0,"byteOffset":1260,"byteLength":1260,"target":34962,"byteStride":12},{"buffer":0,"byteOffset":2520,"byteLength":840,"target":34962,"byteStride":8},{"buffer":0,"byteOffset":3360,"byteLength":308,"target":34963},{"buffer":0,"byteOffset":3668,"byteLength":288,"target":34962,"byteStride":12},{"buffer":0,"byteOffset":3956,"byteLength":288,"target":34962,"byteStride":12},{"buffer":0,"byteOffset":4244,"byteLength":192,"target":34962,"byteStride":8},{"buffer":0,"byteOffset":4436,"byteLength":72,"target":34963},{"buffer":0,"byteOffset":4508,"byteLength":288,"target":34962,"byteStride":12},{"buffer":0,"byteOffset":4796,"byteLength":288,"target":34962,"byteStride":12},{"buffer":0,"byteOffset":5084,"byteLength":192,"target":34962,"byteStride":8},{"buffer":0,"byteOffset":5276,"byteLength":72,"target":34963},{"buffer":0,"byteOffset":5348,"byteLength":288,"target":34962,"byteStride":12},{"buffer":0,"byteOffset":5636,"byteLength":288,"target":34962,"byteStride":12},{"buffer":0,"byteOffset":5924,"byteLength":192,"target":34962,"byteStride":8},{"buffer":0,"byteOffset":6116,"byteLength":72,"target":34963},{"buffer":0,"byteOffset":6188,"byteLength":288,"target":34962,"byteStride":12},{"buffer":0,"byteOffset":6476,"byteLength":288,"target":34962,"byteStride":12},{"buffer":0,"byteOffset":6764,"byteLength":192,"target":34962,"byteStride":8},{"buffer":0,"byteOffset":6956,"byteLength":72,"target":34963},{"buffer":0,"byteOffset":7028,"byteLength":288,"target":34962,"byteStride":12},{"buffer":0,"byteOffset":7316,"byteLength":288,"target":34962,"byteStride":12},{"buffer":0,"byteOffset":7604,"byteLength":192,"target":34962,"byteStride":8},{"buffer":0,"byteOffset":7796,"byteLength":72,"target":34963},{"buffer":0,"byteOffset":7868,"byteLength":288,"target":34962,"byteStride":12},{"buffer":0,"byteOffset":8156,"byteLength":288,"target":34962,"byteStride":12},{"buffer":0,"byteOffset":8444,"byteLength":192,"target":34962,"byteStride":8},{"buffer":0,"byteOffset":8636,"byteLength":72,"target":34963},{"buffer":0,"byteOffset":8708,"byteLength":288,"target":34962,"byteStride":12},{"buffer":0,"byteOffset":8996,"byteLength":288,"target":34962,"byteStride":12},{"buffer":0,"byteOffset":9284,"byteLength":192,"target":34962,"byteStride":8},{"buffer":0,"byteOffset":9476,"byteLength":72,"target":34963},{"buffer":0,"byteOffset":9548,"byteLength":288,"target":34962,"byteStride":12},{"buffer":0,"byteOffset":9836,"byteLength":288,"target":34962,"byteStride":12},{"buffer":0,"byteOffset":10124,"byteLength":192,"target":34962,"byteStride":8},{"buffer":0,"byteOffset":10316,"byteLength":72,"target":34963},{"buffer":0,"byteOffset":10388,"byteLength":288,"target":34962,"byteStride":12},{"buffer":0,"byteOffset":10676,"byteLength":288,"target":34962,"byteStride":12},{"buffer":0,"byteOffset":10964,"byteLength":192,"target":34962,"byteStride":8},{"buffer":0,"byteOffset":11156,"byteLength":72,"target":34963},{"buffer":0,"byteOffset":11228,"byteLength":288,"target":34962,"byteStride":12},{"buffer":0,"byteOffset":11516,"byteLength":288,"target":34962,"byteStride":12},{"buffer":0,"byteOffset":11804,"byteLength":192,"target":34962,"byteStride":8},{"buffer":0,"byteOffset":11996,"byteLength":72,"target":34963},{"buffer":0,"byteOffset":12068,"byteLength":288,"target":34962,"byteStride":12},{"buffer":0,"byteOffset":12356,"byteLength":288,"target":34962,"byteStride":12},{"buffer":0,"byteOffset":12644,"byteLength":192,"target":34962,"byteStride":8},{"buffer":0,"byteOffset":12836,"byteLength":72,"target":34963},{"buffer":0,"byteOffset":12908,"byteLength":288,"target":34962,"byteStride":12},{"buffer":0,"byteOffset":13196,"byteLength":288,"target":34962,"byteStride":12},{"buffer":0,"byteOffset":13484,"byteLength":192,"target":34962,"byteStride":8},{"buffer":0,"byteOffset":13676,"byteLength":72,"target":34963}],"buffers":[{"byteLength":13748,"uri":"data:application/octet-stream;base64,"}],"accessors":[{"bufferView":0,"componentType":5126,"count":105,"max":[0.375,0.625,0.375],"min":[-0.375,0,-0.375],"type":"VEC3"},{"bufferView":1,"componentType":5126,"count":105,"max":[1,1,1],"min":[-1,-1,-1],"type":"VEC3"},{"bufferView":2,"componentType":5126,"count":105,"max":[0.78125,0.8125],"min":[0.140625,0],"type":"VEC2"},{"bufferView":3,"componentType":5123,"count":153,"max":[104],"min":[0],"type":"SCALAR"},{"bufferView":4,"componentType":5126,"count":24,"max":[0.0625,0.0625,0.4375],"min":[-0.4375,0,-0.4375],"type":"VEC3"},{"bufferView":5,"componentType":5126,"count":24,"max":[1,1,1],"min":[-1,-1,-1],"type":"VEC3"},{"bufferView":6,"componentType":5126,"count":24,"max":[0.78125,0.671875],"min":[0.21875,0],"type":"VEC2"},{"bufferView":7,"componentType":5123,"count":36,"max":[23],"min":[0],"type":"SCALAR"},{"bufferView":8,"componentType":5126,"count":24,"max":[0.0625,0.0625,0.4375],"min":[-0.4375,0,-0.4375],"type":"VEC3"},{"bufferView":9,"componentType":5126,"count":24,"max":[1,1,1],"min":[-1,-1,-1],"type":"VEC3"},{"bufferView":10,"componentType":5126,"count":24,"max":[0.84375,0.75],"min":[0,0.21875],"type":"VEC2"},{"bufferView":11,"componentType":5123,"count":36,"max":[23],"min":[0],"type":"SCALAR"},{"bufferView":12,"componentType":5126,"count":24,"max":[0.0625,0.4375,0],"min":[0,0,-0.0625],"type":"VEC3"},{"bufferView":13,"componentType":5126,"count":24,"max":[1,1,1],"min":[-1,-1,-1],"type":"VEC3"},{"bufferView":14,"componentType":5126,"count":24,"max":[0.703125,0.8125],"min":[0,0.203125],"type":"VEC2"},{"bufferView":15,"componentType":5123,"count":36,"max":[23],"min":[0],"type":"SCALAR"},{"bufferView":16,"componentType":5126,"count":24,"max":[0.0625,0.4375,0],"min":[0,0,-0.0625],"type":"VEC3"},{"bufferView":17,"componentType":5126,"count":24,"max":[1,1,1],"min":[-1,-1,-1],"type":"VEC3"},{"bufferView":18,"componentType":5126,"count":24,"max":[0.71875,0.828125],"min":[0.0625,0.15625],"type":"VEC2"},{"bufferView":19,"componentType":5123,"count":36,"max":[23],"min":[0],"type":"SCALAR"},{"bufferView":20,"componentType":5126,"count":24,"max":[0.0625,0.375,0],"min":[0,0,-0.0625],"type":"VEC3"},{"bufferView":21,"componentType":5126,"count":24,"max":[1,1,1],"min":[-1,-1,-1],"type":"VEC3"},{"bufferView":22,"componentType":5126,"count":24,"max":[0.796875,0.84375],"min":[0.125,0.375],"type":"VEC2"},{"bufferView":23,"componentType":5123,"count":36,"max":[23],"min":[0],"type":"SCALAR"},{"bufferView":24,"componentType":5126,"count":24,"max":[0.0625,0.4375,0],"min":[0,0,-0.0625],"type":"VEC3"},{"bufferView":25,"componentType":5126,"count":24,"max":[1,1,1],"min":[-1,-1,-1],"type":"VEC3"},{"bufferView":26,"componentType":5126,"count":24,"max":[0.796875,0.828125],"min":[0.53125,0.6875],"type":"VEC2"},{"bufferView":27,"componentType":5123,"count":36,"max":[23],"min":[0],"type":"SCALAR"},{"bufferView":28,"componentType":5126,"count":24,"max":[0.390625,0.0625,0.0625],"min":[-0.390625,0,-0.71875],"type":"VEC3"},{"bufferView":29,"componentType":5126,"count":24,"max":[1,1,1],"min":[-1,-1,-1],"type":"VEC3"},{"bufferView":30,"componentType":5126,"count":24,"max":[0.828125,0.625],"min":[0,0],"type":"VEC2"},{"bufferView":31,"componentType":5123,"count":36,"max":[23],"min":[0],"type":"SCALAR"},{"bufferView":32,"componentType":5126,"count":24,"max":[0.03125,0.375,0.0625],"min":[-0.0625,0,-0.03125],"type":"VEC3"},{"bufferView":33,"componentType":5126,"count":24,"max":[1,1,1],"min":[-1,-1,-1],"type":"VEC3"},{"bufferView":34,"componentType":5126,"count":24,"max":[0.3125,0.78125],"min":[0.140625,0.640625],"type":"VEC2"},{"bufferView":35,"componentType":5123,"count":36,"max":[23],"min":[0],"type":"SCALAR"},{"bufferView":36,"componentType":5126,"count":24,"max":[0.046875,0.0625,0.03125],"min":[-0.0625,0,0.015625],"type":"VEC3"},{"bufferView":37,"componentType":5126,"count":24,"max":[1,1,1],"min":[-1,-1,-1],"type":"VEC3"},{"bufferView":38,"componentType":5126,"count":24,"max":[0.8125,0.78125],"min":[0.3125,0],"type":"VEC2"},{"bufferView":39,"componentType":5123,"count":36,"max":[23],"min":[0],"type":"SCALAR"},{"bufferView":40,"componentType":5126,"count":24,"max":[0.03125,0.0625,0.015625],"min":[-0.0625,0,0],"type":"VEC3"},{"bufferView":41,"componentType":5126,"count":24,"max":[1,1,1],"min":[-1,-1,-1],"type":"VEC3"},{"bufferView":42,"componentType":5126,"count":24,"max":[0.8125,0.78125],"min":[0.40625,0.0625],"type":"VEC2"},{"bufferView":43,"componentType":5123,"count":36,"max":[23],"min":[0],"type":"SCALAR"},{"bufferView":44,"componentType":5126,"count":24,"max":[-0.046875,0.0625,0.015625],"min":[-0.0625,0,-0.09375],"type":"VEC3"},{"bufferView":45,"componentType":5126,"count":24,"max":[1,1,1],"min":[-1,-1,-1],"type":"VEC3"},{"bufferView":46,"componentType":5126,"count":24,"max":[0.8125,0.796875],"min":[0.453125,0.125],"type":"VEC2"},{"bufferView":47,"componentType":5123,"count":36,"max":[23],"min":[0],"type":"SCALAR"},{"bufferView":48,"componentType":5126,"count":24,"max":[-0.03125,0.0625,0.015625],"min":[-0.046875,0,-0.109375],"type":"VEC3"},{"bufferView":49,"componentType":5126,"count":24,"max":[1,1,1],"min":[-1,-1,-1],"type":"VEC3"},{"bufferView":50,"componentType":5126,"count":24,"max":[0.8125,0.8125],"min":[0.1875,0.1875],"type":"VEC2"},{"bufferView":51,"componentType":5123,"count":36,"max":[23],"min":[0],"type":"SCALAR"}],"materials":[{"pbrMetallicRoughness":{"metallicFactor":0,"roughnessFactor":1,"baseColorTexture":{"index":0}},"alphaMode":"MASK","alphaCutoff":0.05,"doubleSided":true}],"textures":[{"sampler":0,"source":0,"name":"texture"}],"samplers":[{"magFilter":9728,"minFilter":9728,"wrapS":33071,"wrapT":33071}],"images":[{"mimeType":"image/png","uri":"data:image/png;base64,"}],"meshes":[{"primitives":[{"mode":4,"attributes":{"POSITION":0,"NORMAL":1,"TEXCOORD_0":2},"indices":3,"material":0}]},{"primitives":[{"mode":4,"attributes":{"POSITION":4,"NORMAL":5,"TEXCOORD_0":6},"indices":7,"material":0}]},{"primitives":[{"mode":4,"attributes":{"POSITION":8,"NORMAL":9,"TEXCOORD_0":10},"indices":11,"material":0}]},{"primitives":[{"mode":4,"attributes":{"POSITION":12,"NORMAL":13,"TEXCOORD_0":14},"indices":15,"material":0}]},{"primitives":[{"mode":4,"attributes":{"POSITION":16,"NORMAL":17,"TEXCOORD_0":18},"indices":19,"material":0}]},{"primitives":[{"mode":4,"attributes":{"POSITION":20,"NORMAL":21,"TEXCOORD_0":22},"indices":23,"material":0}]},{"primitives":[{"mode":4,"attributes":{"POSITION":24,"NORMAL":25,"TEXCOORD_0":26},"indices":27,"material":0}]},{"primitives":[{"mode":4,"attributes":{"POSITION":28,"NORMAL":29,"TEXCOORD_0":30},"indices":31,"material":0}]},{"primitives":[{"mode":4,"attributes":{"POSITION":32,"NORMAL":33,"TEXCOORD_0":34},"indices":35,"material":0}]},{"primitives":[{"mode":4,"attributes":{"POSITION":36,"NORMAL":37,"TEXCOORD_0":38},"indices":39,"material":0}]},{"primitives":[{"mode":4,"attributes":{"POSITION":40,"NORMAL":41,"TEXCOORD_0":42},"indices":43,"material":0}]},{"primitives":[{"mode":4,"attributes":{"POSITION":44,"NORMAL":45,"TEXCOORD_0":46},"indices":47,"material":0}]},{"primitives":[{"mode":4,"attributes":{"POSITION":48,"NORMAL":49,"TEXCOORD_0":50},"indices":51,"material":0}]}]}