{"asset":{"version":"2.0","generator":"Blockbench 4.12.4 glTF exporter"},"scenes":[{"nodes":[17],"name":"blockbench_export"}],"scene":0,"nodes":[{"name":"cylinder","mesh":0},{"rotation":[-0.3420201433256687,0,0,0.9396926207859084],"translation":[0,1,0.15625],"name":"cylinder","mesh":1},{"translation":[-0.125,0,-0.046875],"name":"cube","mesh":2},{"name":"cube","mesh":3},{"rotation":[-0.35008824266166916,0.0938058906932355,0.24122141738885583,0.9002504679333547],"translation":[0,0.4375,0.046875],"name":"bone","children":[2,3]},{"name":"cube","mesh":4},{"translation":[-0.125,0,-0.046875],"name":"cube","mesh":5},{"rotation":[0.06383915886170372,0.9234972957004526,0.043080795933812935,-0.3757942943306752],"translation":[-0.015625,0.5625,-0.046875],"name":"bone2","children":[5,6]},{"name":"cube","mesh":6},{"translation":[-0.125,0,-0.046875],"name":"cube","mesh":7},{"rotation":[-0.11828684516429976,0.5675520300942517,0.036754189146971664,0.8139668574193417],"translation":[0.046875,0.6875,0.015625],"name":"bone4","children":[8,9]},{"name":"cube","mesh":8},{"translation":[-0.125,0,-0.046875],"name":"cube","mesh":9},{"rotation":[-0.21063691899224463,-0.3975311668254821,0.04277758969660081,0.892060052675589],"translation":[-0.046875,0.84375,0.015625],"name":"bone5","children":[11,12]},{"name":"cube","mesh":10},{"translation":[-0.125,0,-0.046875],"name":"cube","mesh":11},{"rotation":[0.29867385000170166,0.9446707929336428,-0.03371393491741658,0.13135598538196913],"translation":[0.03125,0.3125,-0.03125],"name":"bone3","children":[14,15]},{"children":[0,1,4,7,10,13,16]}],"bufferViews":[{"buffer":0,"byteOffset":0,"byteLength":720,"target":34962,"byteStride":12},{"buffer":0,"byteOffset":720,"byteLength":720,"target":34962,"byteStride":12},{"buffer":0,"byteOffset":1440,"byteLength":480,"target":34962,"byteStride":8},{"buffer":0,"byteOffset":1920,"byteLength":144,"target":34963},{"buffer":0,"byteOffset":2064,"byteLength":1440,"target":34962,"byteStride":12},{"buffer":0,"byteOffset":3504,"byteLength":1440,"target":34962,"byteStride":12},{"buffer":0,"byteOffset":4944,"byteLength":960,"target":34962,"byteStride":8},{"buffer":0,"byteOffset":5904,"byteLength":288,"target":34963},{"buffer":0,"byteOffset":6192,"byteLength":480,"target":34962,"byteStride":12},{"buffer":0,"byteOffset":6672,"byteLength":480,"target":34962,"byteStride":12},{"buffer":0,"byteOffset":7152,"byteLength":320,"target":34962,"byteStride":8},{"buffer":0,"byteOffset":7472,"byteLength":120,"target":34963},{"buffer":0,"byteOffset":7592,"byteLength":288,"target":34962,"byteStride":12},{"buffer":0,"byteOffset":7880,"byteLength":288,"target":34962,"byteStride":12},{"buffer":0,"byteOffset":8168,"byteLength":192,"target":34962,"byteStride":8},{"buffer":0,"byteOffset":8360,"byteLength":72,"target":34963},{"buffer":0,"byteOffset":8432,"byteLength":288,"target":34962,"byteStride":12},{"buffer":0,"byteOffset":8720,"byteLength":288,"target":34962,"byteStride":12},{"buffer":0,"byteOffset":9008,"byteLength":192,"target":34962,"byteStride":8},{"buffer":0,"byteOffset":9200,"byteLength":72,"target":34963},{"buffer":0,"byteOffset":9272,"byteLength":480,"target":34962,"byteStride":12},{"buffer":0,"byteOffset":9752,"byteLength":480,"target":34962,"byteStride":12},{"buffer":0,"byteOffset":10232,"byteLength":320,"target":34962,"byteStride":8},{"buffer":0,"byteOffset":10552,"byteLength":120,"target":34963},{"buffer":0,"byteOffset":10672,"byteLength":288,"target":34962,"byteStride":12},{"buffer":0,"byteOffset":10960,"byteLength":288,"target":34962,"byteStride":12},{"buffer":0,"byteOffset":11248,"byteLength":192,"target":34962,"byteStride":8},{"buffer":0,"byteOffset":11440,"byteLength":72,"target":34963},{"buffer":0,"byteOffset":11512,"byteLength":480,"target":34962,"byteStride":12},{"buffer":0,"byteOffset":11992,"byteLength":480,"target":34962,"byteStride":12},{"buffer":0,"byteOffset":12472,"byteLength":320,"target":34962,"byteStride":8},{"buffer":0,"byteOffset":12792,"byteLength":120,"target":34963},{"buffer":0,"byteOffset":12912,"byteLength":288,"target":34962,"byteStride":12},{"buffer":0,"byteOffset":13200,"byteLength":288,"target":34962,"byteStride":12},{"buffer":0,"byteOffset":13488,"byteLength":192,"target":34962,"byteStride":8},{"buffer":0,"byteOffset":13680,"byteLength":72,"target":34963},{"buffer":0,"byteOffset":13752,"byteLength":480,"target":34962,"byteStride":12},{"buffer":0,"byteOffset":14232,"byteLength":480,"target":34962,"byteStride":12},{"buffer":0,"byteOffset":14712,"byteLength":320,"target":34962,"byteStride":8},{"buffer":0,"byteOffset":15032,"byteLength":120,"target":34963},{"buffer":0,"byteOffset":15152,"byteLength":288,"target":34962,"byteStride":12},{"buffer":0,"byteOffset":15440,"byteLength":288,"target":34962,"byteStride":12},{"buffer":0,"byteOffset":15728,"byteLength":192,"target":34962,"byteStride":8},{"buffer":0,"byteOffset":15920,"byteLength":72,"target":34963},{"buffer":0,"byteOffset":15992,"byteLength":480,"target":34962,"byteStride":12},{"buffer":0,"byteOffset":16472,"byteLength":480,"target":34962,"byteStride":12},{"buffer":0,"byteOffset":16952,"byteLength":320,"target":34962,"byteStride":8},{"buffer":0,"byteOffset":17272,"byteLength":120,"target":34963}],"buffers":[{"byteLength":17392,"uri":"data:application/octet-stream;base64,"}],"accessors":[{"bufferView":0,"componentType":5126,"count":60,"max":[0.0360843762755394,1.1875,0.03125],"min":[-0.0360843762755394,0,-0.03125],"type":"VEC3"},{"bufferView":1,"componentType":5126,"count":60,"max":[0.8660292625427246,1,1],"min":[-0.8660292625427246,-1,-1],"type":"VEC3"},{"bufferView":2,"componentType":5126,"count":60,"max":[0.03608750179409981,1.1875],"min":[0,0],"type":"VEC2"},{"bufferView":3,"componentType":5123,"count":72,"max":[59],"min":[0],"type":"SCALAR"},{"bufferView":4,"componentType":5126,"count":120,"max":[0.375,0.34375,0.375],"min":[-0.375,0.21875,-0.375],"type":"VEC3"},{"bufferView":5,"componentType":5126,"count":120,"max":[1,0.9532323479652405,1],"min":[-1,-0.9520307183265686,-1],"type":"VEC3"},{"bufferView":6,"componentType":5126,"count":120,"max":[0.5176381468772888,0.517638087272644],"min":[0,0],"type":"VEC2"},{"bufferView":7,"componentType":5123,"count":144,"max":[119],"min":[0],"type":"SCALAR"},{"bufferView":8,"componentType":5126,"count":40,"max":[0.0625,0.03125,0.0625],"min":[-0.1875,0,-0.0625],"type":"VEC3"},{"bufferView":9,"componentType":5126,"count":40,"max":[1,1,1],"min":[-0.7071067690849304,-1,-1],"type":"VEC3"},{"bufferView":10,"componentType":5126,"count":40,"max":[0.1875,0.125],"min":[0,0],"type":"VEC2"},{"bufferView":11,"componentType":5123,"count":60,"max":[39],"min":[0],"type":"SCALAR"},{"bufferView":12,"componentType":5126,"count":24,"max":[0.015625,0.03125,-0.03125],"min":[-0.0625,0,-0.0625],"type":"VEC3"},{"bufferView":13,"componentType":5126,"count":24,"max":[1,1,1],"min":[-1,-1,-1],"type":"VEC3"},{"bufferView":14,"componentType":5126,"count":24,"max":[0.078125,0.03125],"min":[0,0],"type":"VEC2"},{"bufferView":15,"componentType":5123,"count":36,"max":[23],"min":[0],"type":"SCALAR"},{"bufferView":16,"componentType":5126,"count":24,"max":[0.015625,0.03125,-0.03125],"min":[-0.0625,0,-0.0625],"type":"VEC3"},{"bufferView":17,"componentType":5126,"count":24,"max":[1,1,1],"min":[-1,-1,-1],"type":"VEC3"},{"bufferView":18,"componentType":5126,"count":24,"max":[0.078125,0.03125],"min":[0,0],"type":"VEC2"},{"bufferView":19,"componentType":5123,"count":36,"max":[23],"min":[0],"type":"SCALAR"},{"bufferView":20,"componentType":5126,"count":40,"max":[0.0625,0.03125,0.0625],"min":[-0.1875,0,-0.0625],"type":"VEC3"},{"bufferView":21,"componentType":5126,"count":40,"max":[1,1,1],"min":[-0.7071067690849304,-1,-1],"type":"VEC3"},{"bufferView":22,"componentType":5126,"count":40,"max":[0.1875,0.125],"min":[0,0],"type":"VEC2"},{"bufferView":23,"componentType":5123,"count":60,"max":[39],"min":[0],"type":"SCALAR"},{"bufferView":24,"componentType":5126,"count":24,"max":[0.015625,0.03125,-0.03125],"min":[-0.0625,0,-0.0625],"type":"VEC3"},{"bufferView":25,"componentType":5126,"count":24,"max":[1,1,1],"min":[-1,-1,-1],"type":"VEC3"},{"bufferView":26,"componentType":5126,"count":24,"max":[0.078125,0.03125],"min":[0,0],"type":"VEC2"},{"bufferView":27,"componentType":5123,"count":36,"max":[23],"min":[0],"type":"SCALAR"},{"bufferView":28,"componentType":5126,"count":40,"max":[0.0625,0.03125,0.0625],"min":[-0.1875,0,-0.0625],"type":"VEC3"},{"bufferView":29,"componentType":5126,"count":40,"max":[1,1,1],"min":[-0.7071067690849304,-1,-1],"type":"VEC3"},{"bufferView":30,"componentType":5126,"count":40,"max":[0.1875,0.125],"min":[0,0],"type":"VEC2"},{"bufferView":31,"componentType":5123,"count":60,"max":[39],"min":[0],"type":"SCALAR"},{"bufferView":32,"componentType":5126,"count":24,"max":[0.015625,0.03125,-0.03125],"min":[-0.0625,0,-0.0625],"type":"VEC3"},{"bufferView":33,"componentType":5126,"count":24,"max":[1,1,1],"min":[-1,-1,-1],"type":"VEC3"},{"bufferView":34,"componentType":5126,"count":24,"max":[0.078125,0.03125],"min":[0,0],"type":"VEC2"},{"bufferView":35,"componentType":5123,"count":36,"max":[23],"min":[0],"type":"SCALAR"},{"bufferView":36,"componentType":5126,"count":40,"max":[0.0625,0.03125,0.0625],"min":[-0.1875,0,-0.0625],"type":"VEC3"},{"bufferView":37,"componentType":5126,"count":40,"max":[1,1,1],"min":[-0.7071067690849304,-1,-1],"type":"VEC3"},{"bufferView":38,"componentType":5126,"count":40,"max":[0.1875,0.125],"min":[0,0],"type":"VEC2"},{"bufferView":39,"componentType":5123,"count":60,"max":[39],"min":[0],"type":"SCALAR"},{"bufferView":40,"componentType":5126,"count":24,"max":[0.015625,0.03125,-0.03125],"min":[-0.0625,0,-0.0625],"type":"VEC3"},{"bufferView":41,"componentType":5126,"count":24,"max":[1,1,1],"min":[-1,-1,-1],"type":"VEC3"},{"bufferView":42,"componentType":5126,"count":24,"max":[0.078125,0.03125],"min":[0,0],"type":"VEC2"},{"bufferView":43,"componentType":5123,"count":36,"max":[23],"min":[0],"type":"SCALAR"},{"bufferView":44,"componentType":5126,"count":40,"max":[0.0625,0.03125,0.0625],"min":[-0.1875,0,-0.0625],"type":"VEC3"},{"bufferView":45,"componentType":5126,"count":40,"max":[1,1,1],"min":[-0.7071067690849304,-1,-1],"type":"VEC3"},{"bufferView":46,"componentType":5126,"count":40,"max":[0.1875,0.125],"min":[0,0],"type":"VEC2"},{"bufferView":47,"componentType":5123,"count":60,"max":[39],"min":[0],"type":"SCALAR"}],"materials":[{"pbrMetallicRoughness":{"metallicFactor":0,"roughnessFactor":1},"alphaMode":"MASK","alphaCutoff":0.05,"doubleSided":true},{"pbrMetallicRoughness":{"metallicFactor":0,"roughnessFactor":1},"alphaMode":"MASK","alphaCutoff":0.05,"doubleSided":true},{"pbrMetallicRoughness":{"metallicFactor":0,"roughnessFactor":1},"alphaMode":"MASK","alphaCutoff":0.05,"doubleSided":true},{"pbrMetallicRoughness":{"metallicFactor":0,"roughnessFactor":1},"alphaMode":"MASK","alphaCutoff":0.05,"doubleSided":true}],"meshes":[{"primitives":[{"mode":4,"attributes":{"POSITION":0,"NORMAL":1,"TEXCOORD_0":2},"indices":3,"material":0}]},{"primitives":[{"mode":4,"attributes":{"POSITION":4,"NORMAL":5,"TEXCOORD_0":6},"indices":7,"material":1}]},{"primitives":[{"mode":4,"attributes":{"POSITION":8,"NORMAL":9,"TEXCOORD_0":10},"indices":11,"material":2}]},{"primitives":[{"mode":4,"attributes":{"POSITION":12,"NORMAL":13,"TEXCOORD_0":14},"indices":15,"material":3}]},{"primitives":[{"mode":4,"attributes":{"POSITION":16,"NORMAL":17,"TEXCOORD_0":18},"indices":19,"material":3}]},{"primitives":[{"mode":4,"attributes":{"POSITION":20,"NORMAL":21,"TEXCOORD_0":22},"indices":23,"material":2}]},{"primitives":[{"mode":4,"attributes":{"POSITION":24,"NORMAL":25,"TEXCOORD_0":26},"indices":27,"material":3}]},{"primitives":[{"mode":4,"attributes":{"POSITION":28,"NORMAL":29,"TEXCOORD_0":30},"indices":31,"material":2}]},{"primitives":[{"mode":4,"attributes":{"POSITION":32,"NORMAL":33,"TEXCOORD_0":34},"indices":35,"material":3}]},{"primitives":[{"mode":4,"attributes":{"POSITION":36,"NORMAL":37,"TEXCOORD_0":38},"indices":39,"material":2}]},{"primitives":[{"mode":4,"attributes":{"POSITION":40,"NORMAL":41,"TEXCOORD_0":42},"indices":43,"material":3}]},{"primitives":[{"mode":4,"attributes":{"POSITION":44,"NORMAL":45,"TEXCOORD_0":46},"indices":47,"material":2}]}]}