{"asset":{"version":"2.0","generator":"Blockbench 4.12.1 glTF exporter"},"scenes":[{"nodes":[7],"name":"blockbench_export"}],"scene":0,"nodes":[{"rotation":[0,0,-0.7071067811865475,0.7071067811865476],"translation":[-0.03125,0,0],"name":"circle","mesh":0},{"rotation":[0,0,-0.7071067811865475,0.7071067811865476],"name":"cylinder","mesh":1},{"rotation":[-0.07698050545441133,-0.07698050545441139,-0.7029039776384699,0.7029039776384709],"translation":[0.09185096912652602,0.02170602220836626,0],"name":"circle","mesh":2},{"rotation":[-0.18301270189221852,-0.18301270189222002,-0.6830127018922184,0.6830127018922203],"translation":[0.09185096912652602,0.02170602220836626,0],"name":"circle","mesh":3},{"rotation":[0,0,-0.17364817766693033,0.984807753012208],"translation":[-0.03125,1.125,0],"name":"header","children":[0,1,2,3]},{"translation":[0,0.3125,0],"name":"cylinder","mesh":4},{"rotation":[0,-0.7071067811865475,0,0.7071067811865476],"name":"main","children":[4,5]},{"children":[6]}],"bufferViews":[{"buffer":0,"byteOffset":0,"byteLength":864,"target":34962,"byteStride":12},{"buffer":0,"byteOffset":864,"byteLength":864,"target":34962,"byteStride":12},{"buffer":0,"byteOffset":1728,"byteLength":576,"target":34962,"byteStride":8},{"buffer":0,"byteOffset":2304,"byteLength":144,"target":34963},{"buffer":0,"byteOffset":2448,"byteLength":720,"target":34962,"byteStride":12},{"buffer":0,"byteOffset":3168,"byteLength":720,"target":34962,"byteStride":12},{"buffer":0,"byteOffset":3888,"byteLength":480,"target":34962,"byteStride":8},{"buffer":0,"byteOffset":4368,"byteLength":144,"target":34963},{"buffer":0,"byteOffset":4512,"byteLength":864,"target":34962,"byteStride":12},{"buffer":0,"byteOffset":5376,"byteLength":864,"target":34962,"byteStride":12},{"buffer":0,"byteOffset":6240,"byteLength":576,"target":34962,"byteStride":8},{"buffer":0,"byteOffset":6816,"byteLength":144,"target":34963},{"buffer":0,"byteOffset":6960,"byteLength":864,"target":34962,"byteStride":12},{"buffer":0,"byteOffset":7824,"byteLength":864,"target":34962,"byteStride":12},{"buffer":0,"byteOffset":8688,"byteLength":576,"target":34962,"byteStride":8},{"buffer":0,"byteOffset":9264,"byteLength":144,"target":34963},{"buffer":0,"byteOffset":9408,"byteLength":720,"target":34962,"byteStride":12},{"buffer":0,"byteOffset":10128,"byteLength":720,"target":34962,"byteStride":12},{"buffer":0,"byteOffset":10848,"byteLength":480,"target":34962,"byteStride":8},{"buffer":0,"byteOffset":11328,"byteLength":144,"target":34963}],"buffers":[{"byteLength":11472,"uri":"data:application/octet-stream;base64,"}],"accessors":[{"bufferView":0,"componentType":5126,"count":72,"max":[0.5,0.0625,0.5],"min":[-0.5,0,-0.5],"type":"VEC3"},{"bufferView":1,"componentType":5126,"count":72,"max":[0.4281792640686035,0.9019339680671692,0.4281792640686035],"min":[-0.4281792640686035,0.9019339680671692,-0.4281792640686035],"type":"VEC3"},{"bufferView":2,"componentType":5126,"count":72,"max":[0.5957933664321899,0.4867023825645447],"min":[0,0],"type":"VEC2"},{"bufferView":3,"componentType":5123,"count":72,"max":[71],"min":[0],"type":"SCALAR"},{"bufferView":4,"componentType":5126,"count":60,"max":[0.18525634706020355,0.125,0.15625],"min":[-0.18525634706020355,0,-0.15625],"type":"VEC3"},{"bufferView":5,"componentType":5126,"count":60,"max":[0.8409789800643921,1,0.9701424837112427],"min":[-0.8409789800643921,-1,-0.9701424837112427],"type":"VEC3"},{"bufferView":6,"componentType":5126,"count":60,"max":[0.5922843813896179,0.578125],"min":[0.0005609375075437129,0],"type":"VEC2"},{"bufferView":7,"componentType":5123,"count":72,"max":[59],"min":[0],"type":"SCALAR"},{"bufferView":8,"componentType":5126,"count":72,"max":[0.40625,-0.015625,0.40625],"min":[-0.40625,-0.078125,-0.40625],"type":"VEC3"},{"bufferView":9,"componentType":5126,"count":72,"max":[0.503377377986908,0.8615215420722961,0.503377377986908],"min":[-0.503377377986908,0.8615215420722961,-0.503377377986908],"type":"VEC3"},{"bufferView":10,"componentType":5126,"count":72,"max":[0.6348738074302673,0.6192488074302673],"min":[0,0.046875],"type":"VEC2"},{"bufferView":11,"componentType":5123,"count":72,"max":[71],"min":[0],"type":"SCALAR"},{"bufferView":12,"componentType":5126,"count":72,"max":[0.28125,0.03125,0.28125],"min":[-0.28125,-0.03125,-0.28125],"type":"VEC3"},{"bufferView":13,"componentType":5126,"count":72,"max":[0.6426576972007751,0.761467456817627,0.6426576972007751],"min":[-0.6426576972007751,0.7614673972129822,-0.6426576972007751],"type":"VEC3"},{"bufferView":14,"componentType":5126,"count":72,"max":[0.6976203322410583,0.6663703322410583],"min":[0.03125,0],"type":"VEC2"},{"bufferView":15,"componentType":5123,"count":72,"max":[71],"min":[0],"type":"SCALAR"},{"bufferView":16,"componentType":5126,"count":60,"max":[0.10795938968658447,0.8125,0.03125],"min":[0.03579060733318329,-0.3125,-0.03125],"type":"VEC3"},{"bufferView":17,"componentType":5126,"count":60,"max":[0.8660153746604919,1,0.9999845623970032],"min":[-0.8660153746604919,-1,-0.9999845623970032],"type":"VEC3"},{"bufferView":18,"componentType":5126,"count":60,"max":[0.4777718782424927,0.609375],"min":[0.006603125017136335,0],"type":"VEC2"},{"bufferView":19,"componentType":5123,"count":72,"max":[59],"min":[0],"type":"SCALAR"}],"materials":[{"pbrMetallicRoughness":{"metallicFactor":0,"roughnessFactor":1,"baseColorTexture":{"index":0}},"alphaMode":"MASK","alphaCutoff":0.05,"doubleSided":true}],"textures":[{"sampler":0,"source":0,"name":"texture"}],"samplers":[{"magFilter":9728,"minFilter":9728,"wrapS":33071,"wrapT":33071}],"images":[{"mimeType":"image/png","uri":"data:image/png;base64,"}],"meshes":[{"primitives":[{"mode":4,"attributes":{"POSITION":0,"NORMAL":1,"TEXCOORD_0":2},"indices":3,"material":0}]},{"primitives":[{"mode":4,"attributes":{"POSITION":4,"NORMAL":5,"TEXCOORD_0":6},"indices":7,"material":0}]},{"primitives":[{"mode":4,"attributes":{"POSITION":8,"NORMAL":9,"TEXCOORD_0":10},"indices":11,"material":0}]},{"primitives":[{"mode":4,"attributes":{"POSITION":12,"NORMAL":13,"TEXCOORD_0":14},"indices":15,"material":0}]},{"primitives":[{"mode":4,"attributes":{"POSITION":16,"NORMAL":17,"TEXCOORD_0":18},"indices":19,"material":0}]}]}